<svg id="svg" version="1.1" xmlns="http://www.w3.org/2000/svg" xmlns:xlink="http://www.w3.org/1999/xlink" width="400" height="283.14606741573033" viewBox="0, 0, 400,283.14606741573033"><g id="svgg"><path id="path0" d="M0.000 141.643 L 0.000 283.286 200.000 283.286 L 400.000 283.286 400.000 141.643 L 400.000 0.000 200.000 0.000 L 0.000 0.000 0.000 141.643 M373.031 55.297 C 373.294 55.560,373.371 75.136,373.371 141.684 L 373.371 227.730 372.741 228.171 C 371.620 228.956,27.982 228.831,27.195 228.045 C 26.406 227.256,26.286 56.191,27.074 55.403 C 27.664 54.813,372.442 54.708,373.031 55.297 " stroke="none" fill="#fcfcfb" fill-rule="evenodd"></path><path id="path1" d="M28.538 55.761 C 27.887 56.019,27.746 227.113,28.397 227.527 C 29.020 227.923,371.502 227.818,371.898 227.422 C 372.577 226.744,372.370 56.181,371.690 55.817 C 371.065 55.483,29.383 55.427,28.538 55.761 M192.646 97.141 C 194.852 97.469,196.622 97.896,197.315 98.268 C 197.929 98.597,198.844 98.943,199.347 99.038 C 199.851 99.132,200.417 99.395,200.605 99.621 C 200.793 99.847,201.379 100.213,201.907 100.434 C 204.016 101.315,209.182 106.334,209.814 108.116 C 209.916 108.404,210.254 108.923,210.565 109.269 C 210.876 109.614,211.378 110.630,211.680 111.527 L 212.230 113.156 211.568 113.648 C 211.204 113.919,210.556 114.410,210.128 114.740 C 209.078 115.549,208.447 115.366,208.139 114.164 C 208.000 113.619,207.666 112.918,207.396 112.606 C 207.127 112.295,206.751 111.721,206.560 111.331 C 205.411 108.987,202.604 105.916,200.567 104.775 C 196.431 102.459,195.522 102.017,194.874 102.001 C 194.470 101.991,193.399 101.728,192.493 101.416 C 190.468 100.720,186.724 100.651,184.880 101.277 C 184.188 101.512,182.947 101.832,182.123 101.989 C 181.299 102.145,180.343 102.537,180.000 102.859 C 178.787 103.999,177.312 103.874,176.416 102.556 C 175.151 100.693,175.668 99.532,178.045 98.899 C 178.669 98.733,179.463 98.398,179.810 98.154 C 180.363 97.765,186.402 96.695,188.385 96.635 C 188.775 96.623,190.692 96.851,192.646 97.141 M160.606 101.293 C 163.258 103.689,162.870 108.182,159.839 110.190 L 158.543 111.048 140.723 111.048 L 122.903 111.048 122.075 111.876 C 121.619 112.332,121.246 112.890,121.246 113.116 C 121.246 113.343,121.052 113.690,120.814 113.887 C 120.201 114.396,118.760 116.581,118.281 117.728 C 118.058 118.261,117.743 118.697,117.580 118.697 C 117.306 118.697,116.779 119.559,115.758 121.674 C 115.532 122.143,115.049 122.863,114.685 123.274 C 114.321 123.685,113.640 124.688,113.173 125.503 C 112.705 126.318,112.107 127.217,111.842 127.500 C 111.578 127.784,111.160 128.406,110.913 128.883 C 110.666 129.360,110.082 130.291,109.614 130.952 C 109.146 131.612,108.555 132.472,108.301 132.861 C 108.046 133.251,107.224 134.479,106.474 135.591 C 105.723 136.703,104.979 137.914,104.820 138.282 C 104.661 138.651,104.083 139.525,103.536 140.227 C 102.989 140.928,102.338 141.948,102.090 142.493 C 101.842 143.038,101.458 143.676,101.236 143.909 C 100.605 144.576,99.497 146.235,99.060 147.167 C 98.841 147.635,98.389 148.260,98.056 148.557 C 97.723 148.853,97.450 149.191,97.450 149.307 C 97.450 149.566,95.622 152.389,95.075 152.975 C 94.857 153.208,94.467 153.846,94.208 154.391 C 93.429 156.032,92.709 157.246,92.218 157.744 C 91.963 158.003,91.321 158.916,90.793 159.773 C 90.265 160.630,89.564 161.714,89.235 162.181 C 88.907 162.649,88.206 163.732,87.677 164.589 C 87.149 165.446,86.536 166.339,86.315 166.572 C 86.095 166.806,85.752 167.316,85.554 167.705 C 84.503 169.776,83.447 171.072,82.479 171.482 C 81.148 172.044,69.571 172.354,69.143 171.838 C 68.865 171.503,70.601 168.476,71.498 167.732 C 71.749 167.523,71.955 167.187,71.955 166.984 C 71.955 166.782,72.273 166.237,72.663 165.774 C 73.052 165.311,73.371 164.798,73.371 164.634 C 73.371 164.470,73.690 163.991,74.079 163.571 C 74.469 163.151,74.788 162.722,74.788 162.618 C 74.788 162.515,75.029 162.171,75.324 161.854 C 75.619 161.537,76.072 160.869,76.331 160.369 C 76.589 159.869,77.017 159.220,77.281 158.927 C 78.040 158.086,79.262 156.382,80.466 154.482 C 81.077 153.519,81.699 152.655,81.849 152.563 C 81.998 152.470,82.647 151.441,83.290 150.277 C 83.933 149.112,84.550 148.159,84.662 148.159 C 84.904 148.159,86.969 145.144,86.969 144.791 C 86.969 144.656,87.168 144.380,87.411 144.178 C 87.655 143.976,88.270 143.164,88.778 142.373 C 90.305 139.999,90.597 139.568,91.483 138.385 C 91.949 137.762,92.593 136.774,92.913 136.190 C 93.234 135.606,93.600 135.127,93.728 135.127 C 93.856 135.127,94.114 134.790,94.302 134.378 C 94.490 133.965,94.899 133.296,95.212 132.890 C 95.525 132.485,96.340 131.324,97.024 130.312 C 97.708 129.299,98.699 127.833,99.226 127.054 C 99.753 126.275,100.399 125.319,100.661 124.929 C 100.924 124.540,101.583 123.647,102.127 122.946 C 102.671 122.245,103.199 121.480,103.299 121.246 C 103.400 121.013,103.760 120.503,104.100 120.113 C 104.832 119.272,106.516 116.617,106.516 116.302 C 106.516 116.108,107.460 114.887,108.608 113.598 C 110.938 110.982,111.593 111.074,90.117 110.985 L 71.226 110.907 70.184 110.048 C 66.983 107.408,67.023 103.754,70.284 101.011 L 71.148 100.283 115.318 100.283 L 159.488 100.283 160.606 101.293 M192.178 106.509 C 193.095 106.659,194.051 106.962,194.303 107.182 C 194.554 107.402,195.078 107.676,195.467 107.791 C 196.601 108.125,198.516 109.401,199.655 110.580 C 201.631 112.626,201.989 113.063,202.426 113.967 C 202.666 114.465,203.111 115.319,203.414 115.864 C 204.496 117.811,204.032 119.136,201.834 120.376 C 199.801 121.523,199.541 121.411,199.294 119.283 C 199.184 118.337,198.974 117.488,198.828 117.398 C 198.681 117.307,198.265 116.765,197.904 116.194 C 195.705 112.713,192.241 110.936,187.964 111.094 C 185.814 111.173,184.893 111.322,184.513 111.652 C 184.101 112.009,182.395 112.748,181.982 112.748 C 181.935 112.748,181.444 112.156,180.891 111.432 C 179.470 109.571,179.490 108.385,180.949 107.922 C 181.533 107.737,182.313 107.396,182.682 107.164 C 184.027 106.318,188.943 105.979,192.178 106.509 M150.850 117.813 C 152.897 118.794,154.081 120.005,155.068 122.124 L 155.807 123.709 155.807 136.624 C 155.807 151.897,155.915 152.578,157.825 149.399 C 158.351 148.523,159.067 147.471,159.415 147.062 C 160.612 145.655,161.756 144.114,161.756 143.909 C 161.756 143.709,162.843 142.211,164.017 140.793 C 164.948 139.669,166.369 137.800,167.139 136.686 C 167.528 136.123,168.340 135.134,168.942 134.488 C 170.013 133.339,170.922 132.092,172.136 130.102 C 172.470 129.556,172.894 129.015,173.079 128.901 C 173.264 128.787,173.628 128.370,173.889 127.975 C 174.924 126.406,177.606 123.000,179.024 121.453 C 180.799 119.515,181.141 119.607,181.422 122.098 C 181.563 123.337,181.757 123.867,182.148 124.076 C 182.441 124.233,182.771 124.649,182.881 125.000 C 183.097 125.685,184.847 127.479,185.301 127.479 C 185.452 127.479,185.942 127.750,186.389 128.081 C 187.532 128.925,190.637 128.971,191.569 128.157 C 192.873 127.017,194.281 126.567,194.612 127.184 C 195.063 128.028,194.997 169.060,194.543 169.945 C 193.834 171.325,189.144 172.325,186.969 171.561 C 186.268 171.315,185.473 171.111,185.202 171.109 C 184.931 171.107,184.357 170.563,183.927 169.901 L 183.144 168.697 183.065 151.435 C 182.989 134.780,182.921 133.428,182.168 133.428 C 181.927 133.428,179.119 136.847,178.329 138.104 C 176.809 140.520,176.415 141.076,176.227 141.076 C 176.115 141.076,175.407 142.033,174.655 143.201 C 173.903 144.370,173.176 145.326,173.040 145.326 C 172.904 145.326,172.640 145.676,172.453 146.105 C 172.266 146.533,171.854 147.155,171.538 147.486 C 171.222 147.817,170.644 148.558,170.255 149.132 C 169.865 149.706,169.164 150.666,168.697 151.265 C 168.229 151.864,167.210 153.267,166.431 154.384 C 165.652 155.500,164.372 157.201,163.587 158.164 C 162.802 159.127,161.722 160.616,161.187 161.473 C 160.651 162.330,159.891 163.367,159.497 163.777 C 159.104 164.188,158.564 164.825,158.297 165.194 C 154.664 170.219,154.067 170.737,151.272 171.298 C 148.527 171.849,146.033 171.445,144.743 170.240 C 143.677 169.244,143.667 169.083,143.524 150.478 C 143.457 141.704,143.334 134.458,143.251 134.375 C 142.854 133.978,141.346 134.672,140.805 135.500 C 139.968 136.785,137.775 139.981,137.272 140.652 C 137.038 140.963,136.428 141.759,135.916 142.420 C 134.008 144.885,133.782 145.205,133.320 146.105 C 133.060 146.611,132.735 147.025,132.599 147.025 C 132.462 147.025,132.088 147.440,131.767 147.946 C 131.447 148.453,130.480 149.823,129.618 150.992 C 127.752 153.524,126.661 155.052,126.001 156.058 C 125.379 157.007,124.653 157.957,123.938 158.758 C 123.626 159.107,122.866 160.148,122.248 161.070 C 121.273 162.528,120.716 163.271,119.214 165.116 C 118.595 165.876,116.997 168.333,116.997 168.525 C 116.997 168.862,114.620 171.309,113.970 171.640 C 113.579 171.839,111.306 171.955,107.774 171.955 L 102.195 171.955 102.359 171.137 C 102.515 170.355,103.285 169.059,104.312 167.847 C 104.946 167.098,106.203 165.426,107.082 164.159 C 107.725 163.233,108.654 162.003,110.180 160.057 C 110.885 159.158,112.212 157.395,113.231 156.001 C 113.667 155.406,114.214 154.699,114.448 154.429 C 114.681 154.159,115.380 153.179,115.999 152.252 C 116.619 151.325,117.766 149.780,118.549 148.818 C 119.331 147.857,120.290 146.603,120.680 146.031 C 121.069 145.460,121.719 144.589,122.122 144.097 C 123.012 143.012,125.653 139.493,126.629 138.091 C 127.018 137.532,127.925 136.350,128.643 135.464 C 129.361 134.578,130.161 133.438,130.421 132.932 C 130.680 132.426,131.005 132.011,131.143 132.011 C 131.280 132.011,131.627 131.646,131.914 131.199 C 132.362 130.503,133.462 128.987,135.617 126.097 C 141.247 118.543,146.461 115.708,150.850 117.813 M187.960 119.689 C 189.051 119.971,190.135 120.358,190.368 120.549 C 190.602 120.740,191.256 121.134,191.822 121.425 C 192.388 121.716,193.190 122.362,193.605 122.861 L 194.360 123.767 193.635 124.914 C 193.228 125.560,192.688 126.062,192.403 126.062 C 192.123 126.062,191.456 126.390,190.919 126.790 C 189.862 127.579,188.164 127.580,187.260 126.792 C 187.022 126.585,186.337 126.242,185.738 126.030 C 185.034 125.782,184.492 125.343,184.207 124.792 C 183.964 124.322,183.586 123.806,183.365 123.644 C 182.794 123.226,182.593 121.212,183.000 119.979 C 183.404 118.757,184.178 118.712,187.960 119.689 M223.883 137.701 C 225.112 137.886,226.314 138.268,226.912 138.664 C 227.458 139.025,228.187 139.404,228.533 139.507 C 229.224 139.711,233.711 144.403,233.711 144.920 C 233.711 145.097,234.026 145.834,234.412 146.559 C 237.588 152.533,235.713 163.989,230.833 168.423 C 229.624 169.522,227.332 171.105,226.952 171.105 C 226.791 171.105,226.047 171.434,225.298 171.835 C 223.423 172.842,215.571 172.803,213.881 171.779 C 213.336 171.448,212.550 171.098,212.136 171.000 C 211.167 170.773,207.394 167.043,206.483 165.413 C 204.093 161.137,203.071 153.901,204.367 150.425 C 204.628 149.724,205.022 148.495,205.242 147.695 C 205.969 145.049,210.482 139.721,212.401 139.242 C 212.826 139.136,213.404 138.841,213.686 138.587 C 214.787 137.595,220.110 137.132,223.883 137.701 M258.940 137.774 C 260.112 138.002,261.026 138.363,261.418 138.756 C 261.760 139.097,262.230 139.377,262.463 139.377 C 263.735 139.377,266.002 142.599,267.248 146.176 L 268.087 148.584 268.197 160.006 C 268.325 173.301,268.582 172.238,265.244 172.238 C 261.416 172.238,261.756 173.266,261.756 161.711 C 261.756 150.069,261.434 147.678,259.561 145.438 C 257.177 142.586,252.231 142.783,249.330 145.846 C 247.104 148.196,247.201 147.584,247.034 160.246 C 246.951 166.505,246.778 171.731,246.648 171.861 C 246.111 172.396,241.057 172.132,240.629 171.546 C 240.294 171.089,240.225 168.605,240.217 156.816 C 240.212 149.016,240.094 141.745,239.953 140.657 C 239.615 138.028,239.689 137.960,242.903 137.960 C 245.318 137.960,245.559 138.013,246.176 138.669 C 247.018 139.565,248.024 139.571,249.324 138.688 C 251.045 137.518,255.456 137.099,258.940 137.774 M291.537 137.778 C 293.351 138.129,293.863 138.411,296.211 140.349 C 297.532 141.439,299.419 144.290,299.880 145.892 C 300.082 146.593,300.441 147.677,300.678 148.300 C 301.182 149.626,301.297 154.972,300.840 155.826 C 300.558 156.353,300.137 156.374,289.943 156.374 C 279.384 156.374,279.339 156.376,279.014 156.983 C 278.125 158.644,280.445 163.651,282.735 165.014 C 282.997 165.170,283.573 165.552,284.015 165.864 C 285.391 166.834,292.819 166.706,294.772 165.679 C 296.109 164.976,296.843 164.762,297.641 164.840 C 297.824 164.858,298.130 165.348,298.321 165.928 C 298.513 166.509,298.891 167.347,299.161 167.791 C 300.015 169.195,299.235 170.681,297.482 170.992 C 296.919 171.092,296.013 171.445,295.467 171.777 C 293.947 172.701,283.665 172.698,282.153 171.773 C 281.608 171.439,280.732 171.075,280.207 170.964 C 278.912 170.690,274.716 166.515,274.218 165.005 C 274.022 164.412,273.628 163.529,273.341 163.043 C 271.901 160.603,271.891 149.881,273.327 147.500 C 273.625 147.005,274.017 146.138,274.197 145.572 C 274.378 145.007,274.776 144.318,275.081 144.041 C 275.387 143.765,275.637 143.411,275.637 143.257 C 275.637 142.840,279.281 139.377,279.718 139.377 C 279.925 139.377,280.456 139.092,280.898 138.744 C 282.419 137.548,287.817 137.058,291.537 137.778 M307.627 138.745 C 308.075 139.193,308.501 140.012,308.620 140.657 C 308.735 141.277,309.062 142.167,309.346 142.635 C 309.631 143.102,310.015 144.054,310.200 144.749 C 310.385 145.445,310.764 146.304,311.043 146.659 C 311.322 147.014,311.635 147.755,311.739 148.306 C 311.842 148.857,312.165 149.719,312.456 150.221 C 312.747 150.723,313.133 151.694,313.314 152.378 C 313.494 153.063,313.875 153.956,314.160 154.361 C 314.445 154.767,314.756 155.545,314.852 156.091 C 314.948 156.636,315.462 157.781,315.994 158.636 L 316.961 160.189 317.262 159.396 C 317.428 158.960,317.565 158.452,317.566 158.268 C 317.568 158.083,317.882 157.295,318.266 156.516 C 318.649 155.737,318.967 154.844,318.972 154.533 C 318.978 154.221,319.364 153.201,319.830 152.266 C 320.296 151.331,320.678 150.338,320.679 150.058 C 320.679 149.778,320.999 148.950,321.388 148.219 C 321.778 147.487,322.096 146.695,322.096 146.459 C 322.096 146.223,322.398 145.457,322.766 144.757 C 323.134 144.057,323.526 142.988,323.636 142.381 C 323.747 141.774,324.051 140.952,324.312 140.555 C 324.574 140.158,324.915 139.444,325.071 138.968 L 325.354 138.102 328.191 138.022 C 331.657 137.924,332.293 138.205,331.604 139.526 C 331.363 139.989,331.164 140.561,331.163 140.795 C 331.162 141.030,330.843 141.821,330.453 142.553 C 330.064 143.285,329.745 144.049,329.744 144.250 C 329.743 144.452,329.361 145.382,328.895 146.317 C 328.429 147.252,328.046 148.272,328.045 148.584 C 328.043 148.895,327.788 149.533,327.479 150.000 C 327.169 150.467,326.915 151.044,326.914 151.282 C 326.913 151.520,326.534 152.476,326.071 153.407 C 325.609 154.338,325.226 155.303,325.221 155.553 C 325.216 155.802,324.894 156.606,324.504 157.338 C 324.115 158.071,323.796 158.875,323.796 159.126 C 323.796 159.377,323.493 160.103,323.122 160.740 C 322.752 161.377,322.353 162.344,322.238 162.890 C 322.122 163.435,321.724 164.454,321.353 165.154 C 320.983 165.853,320.680 166.650,320.680 166.924 C 320.680 167.198,320.368 168.027,319.988 168.768 C 319.391 169.928,318.626 171.563,317.304 174.504 C 317.129 174.894,316.637 175.809,316.212 176.538 C 315.787 177.267,315.197 178.287,314.902 178.805 C 314.606 179.322,313.522 180.557,312.494 181.550 C 310.047 183.911,309.944 183.994,308.782 184.546 C 308.237 184.804,307.344 185.264,306.799 185.567 C 304.752 186.705,303.366 186.075,302.674 183.693 C 302.011 181.411,302.282 180.598,303.888 180.051 C 305.375 179.544,305.403 179.522,308.074 176.850 C 310.165 174.756,311.615 172.931,311.615 172.389 C 311.615 172.211,311.933 171.633,312.323 171.105 C 313.171 169.955,313.217 169.068,312.491 167.880 C 312.193 167.395,311.799 166.424,311.614 165.722 C 311.430 165.021,311.091 164.237,310.862 163.980 C 310.633 163.723,310.272 162.856,310.060 162.052 C 309.848 161.249,309.550 160.439,309.399 160.253 C 309.247 160.067,308.924 159.241,308.681 158.417 C 308.438 157.593,307.979 156.588,307.661 156.183 C 307.343 155.779,307.082 155.114,307.081 154.707 C 307.081 154.299,306.825 153.548,306.514 153.038 C 306.203 152.527,305.816 151.522,305.655 150.803 C 305.494 150.085,305.127 149.198,304.838 148.831 C 304.549 148.464,304.224 147.684,304.116 147.099 C 304.007 146.513,303.685 145.652,303.399 145.184 C 303.114 144.717,302.792 143.855,302.683 143.269 C 302.574 142.684,302.230 141.880,301.917 141.482 C 301.185 140.551,300.781 138.810,301.184 138.324 C 301.844 137.529,306.730 137.848,307.627 138.745 M217.779 143.757 C 215.175 144.327,211.377 148.007,211.336 150.000 C 211.329 150.312,211.071 151.375,210.761 152.362 C 210.452 153.350,210.198 154.582,210.198 155.099 C 210.198 155.617,210.452 156.848,210.761 157.836 C 211.071 158.824,211.326 159.909,211.328 160.247 C 211.330 160.586,211.650 161.242,212.040 161.705 C 212.429 162.168,212.748 162.671,212.748 162.824 C 212.748 163.152,214.863 165.141,216.017 165.898 C 217.574 166.918,222.439 166.669,224.273 165.474 C 231.869 160.528,230.643 145.793,222.471 143.810 C 220.261 143.274,219.998 143.271,217.779 143.757 M284.944 143.756 C 282.814 144.343,281.718 145.354,279.781 148.517 C 279.317 149.276,279.323 149.321,280.006 150.004 L 280.711 150.708 286.935 150.708 L 293.160 150.708 293.721 149.995 C 294.275 149.291,294.275 149.264,293.746 147.816 C 292.469 144.322,288.886 142.670,284.944 143.756 " stroke="none" fill="#fbdb14" fill-rule="evenodd"></path><path id="path2" d="M184.059 97.183 C 182.037 97.478,180.163 97.906,179.810 98.154 C 179.463 98.398,178.669 98.733,178.045 98.899 C 175.668 99.532,175.151 100.693,176.416 102.556 C 177.312 103.874,178.787 103.999,180.000 102.859 C 180.343 102.537,181.299 102.145,182.123 101.989 C 182.947 101.832,184.188 101.512,184.880 101.277 C 186.724 100.651,190.468 100.720,192.493 101.416 C 193.399 101.728,194.470 101.991,194.874 102.001 C 195.522 102.017,196.431 102.459,200.567 104.775 C 202.604 105.916,205.411 108.987,206.560 111.331 C 206.751 111.721,207.127 112.295,207.396 112.606 C 207.666 112.918,208.000 113.619,208.139 114.164 C 208.447 115.366,209.078 115.549,210.128 114.740 C 210.556 114.410,211.204 113.919,211.568 113.648 L 212.230 113.156 211.680 111.527 C 211.378 110.630,210.876 109.614,210.565 109.269 C 210.254 108.923,209.916 108.404,209.814 108.116 C 209.182 106.334,204.016 101.315,201.907 100.434 C 201.379 100.213,200.793 99.847,200.605 99.621 C 200.417 99.395,199.851 99.132,199.347 99.038 C 198.844 98.943,197.929 98.597,197.315 98.268 C 194.762 96.899,189.159 96.441,184.059 97.183 M70.284 101.011 C 67.023 103.754,66.983 107.408,70.184 110.048 L 71.226 110.907 90.117 110.985 C 111.593 111.074,110.938 110.982,108.608 113.598 C 107.460 114.887,106.516 116.108,106.516 116.302 C 106.516 116.617,104.832 119.272,104.100 120.113 C 103.760 120.503,103.400 121.013,103.299 121.246 C 103.199 121.480,102.671 122.245,102.127 122.946 C 101.583 123.647,100.924 124.540,100.661 124.929 C 100.399 125.319,99.753 126.275,99.226 127.054 C 98.699 127.833,97.708 129.299,97.024 130.312 C 96.340 131.324,95.525 132.485,95.212 132.890 C 94.899 133.296,94.490 133.965,94.302 134.378 C 94.114 134.790,93.856 135.127,93.728 135.127 C 93.600 135.127,93.234 135.606,92.913 136.190 C 92.593 136.774,91.949 137.762,91.483 138.385 C 90.597 139.568,90.305 139.999,88.778 142.373 C 88.270 143.164,87.655 143.976,87.411 144.178 C 87.168 144.380,86.969 144.656,86.969 144.791 C 86.969 145.144,84.904 148.159,84.662 148.159 C 84.550 148.159,83.933 149.112,83.290 150.277 C 82.647 151.441,81.998 152.470,81.849 152.563 C 81.699 152.655,81.077 153.519,80.466 154.482 C 79.262 156.382,78.040 158.086,77.281 158.927 C 77.017 159.220,76.589 159.869,76.331 160.369 C 76.072 160.869,75.619 161.537,75.324 161.854 C 75.029 162.171,74.788 162.515,74.788 162.618 C 74.788 162.722,74.469 163.151,74.079 163.571 C 73.690 163.991,73.371 164.470,73.371 164.634 C 73.371 164.798,73.052 165.311,72.663 165.774 C 72.273 166.237,71.955 166.782,71.955 166.984 C 71.955 167.187,71.749 167.523,71.498 167.732 C 70.601 168.476,68.865 171.503,69.143 171.838 C 69.571 172.354,81.148 172.044,82.479 171.482 C 83.447 171.072,84.503 169.776,85.554 167.705 C 85.752 167.316,86.095 166.806,86.315 166.572 C 86.536 166.339,87.149 165.446,87.677 164.589 C 88.206 163.732,88.907 162.649,89.235 162.181 C 89.564 161.714,90.265 160.630,90.793 159.773 C 91.321 158.916,91.963 158.003,92.218 157.744 C 92.709 157.246,93.429 156.032,94.208 154.391 C 94.467 153.846,94.857 153.208,95.075 152.975 C 95.622 152.389,97.450 149.566,97.450 149.307 C 97.450 149.191,97.723 148.853,98.056 148.557 C 98.389 148.260,98.841 147.635,99.060 147.167 C 99.497 146.235,100.605 144.576,101.236 143.909 C 101.458 143.676,101.842 143.038,102.090 142.493 C 102.338 141.948,102.989 140.928,103.536 140.227 C 104.083 139.525,104.661 138.651,104.820 138.282 C 104.979 137.914,105.723 136.703,106.474 135.591 C 107.224 134.479,108.046 133.251,108.301 132.861 C 108.555 132.472,109.146 131.612,109.614 130.952 C 110.082 130.291,110.666 129.360,110.913 128.883 C 111.160 128.406,111.578 127.784,111.842 127.500 C 112.107 127.217,112.705 126.318,113.173 125.503 C 113.640 124.688,114.321 123.685,114.685 123.274 C 115.049 122.863,115.532 122.143,115.758 121.674 C 116.779 119.559,117.306 118.697,117.580 118.697 C 117.743 118.697,118.058 118.261,118.281 117.728 C 118.760 116.581,120.201 114.396,120.814 113.887 C 121.052 113.690,121.246 113.343,121.246 113.116 C 121.246 112.890,121.619 112.332,122.075 111.876 L 122.903 111.048 140.723 111.048 L 158.543 111.048 159.839 110.190 C 162.870 108.182,163.258 103.689,160.606 101.293 L 159.488 100.283 115.318 100.283 L 71.148 100.283 70.284 101.011 M184.665 106.521 C 183.943 106.643,183.051 106.932,182.682 107.164 C 182.313 107.396,181.533 107.737,180.949 107.922 C 179.490 108.385,179.470 109.571,180.891 111.432 C 181.444 112.156,181.935 112.748,181.982 112.748 C 182.395 112.748,184.101 112.009,184.513 111.652 C 184.893 111.322,185.814 111.173,187.964 111.094 C 192.241 110.936,195.705 112.713,197.904 116.194 C 198.265 116.765,198.681 117.307,198.828 117.398 C 198.974 117.488,199.184 118.337,199.294 119.283 C 199.541 121.411,199.801 121.523,201.834 120.376 C 204.032 119.136,204.496 117.811,203.414 115.864 C 203.111 115.319,202.666 114.465,202.426 113.967 C 201.369 111.780,197.576 108.413,195.467 107.791 C 195.078 107.676,194.554 107.402,194.303 107.182 C 193.354 106.351,187.888 105.976,184.665 106.521 M144.822 117.835 C 142.231 118.749,138.795 121.833,135.617 126.097 C 133.462 128.987,132.362 130.503,131.914 131.199 C 131.627 131.646,131.280 132.011,131.143 132.011 C 131.005 132.011,130.680 132.426,130.421 132.932 C 130.161 133.438,129.361 134.578,128.643 135.464 C 127.925 136.350,127.018 137.532,126.629 138.091 C 125.653 139.493,123.012 143.012,122.122 144.097 C 121.719 144.589,121.069 145.460,120.680 146.031 C 120.290 146.603,119.331 147.857,118.549 148.818 C 117.766 149.780,116.619 151.325,115.999 152.252 C 115.380 153.179,114.681 154.159,114.448 154.429 C 114.214 154.699,113.667 155.406,113.231 156.001 C 112.212 157.395,110.885 159.158,110.180 160.057 C 108.654 162.003,107.725 163.233,107.082 164.159 C 106.203 165.426,104.946 167.098,104.312 167.847 C 103.285 169.059,102.515 170.355,102.359 171.137 L 102.195 171.955 107.774 171.955 C 111.306 171.955,113.579 171.839,113.970 171.640 C 114.620 171.309,116.997 168.862,116.997 168.525 C 116.997 168.333,118.595 165.876,119.214 165.116 C 120.716 163.271,121.273 162.528,122.248 161.070 C 122.866 160.148,123.626 159.107,123.938 158.758 C 124.653 157.957,125.379 157.007,126.001 156.058 C 126.661 155.052,127.752 153.524,129.618 150.992 C 130.480 149.823,131.447 148.453,131.767 147.946 C 132.088 147.440,132.462 147.025,132.599 147.025 C 132.735 147.025,133.060 146.611,133.320 146.105 C 133.782 145.205,134.008 144.885,135.916 142.420 C 136.428 141.759,137.038 140.963,137.272 140.652 C 137.775 139.981,139.968 136.785,140.805 135.500 C 141.346 134.672,142.854 133.978,143.251 134.375 C 143.334 134.458,143.457 141.704,143.524 150.478 C 143.667 169.083,143.677 169.244,144.743 170.240 C 146.033 171.445,148.527 171.849,151.272 171.298 C 154.067 170.737,154.664 170.219,158.297 165.194 C 158.564 164.825,159.104 164.188,159.497 163.777 C 159.891 163.367,160.651 162.330,161.187 161.473 C 161.722 160.616,162.802 159.127,163.587 158.164 C 164.372 157.201,165.652 155.500,166.431 154.384 C 167.210 153.267,168.229 151.864,168.697 151.265 C 169.164 150.666,169.865 149.706,170.255 149.132 C 170.644 148.558,171.222 147.817,171.538 147.486 C 171.854 147.155,172.266 146.533,172.453 146.105 C 172.640 145.676,172.904 145.326,173.040 145.326 C 173.176 145.326,173.903 144.370,174.655 143.201 C 175.407 142.033,176.115 141.076,176.227 141.076 C 176.415 141.076,176.809 140.520,178.329 138.104 C 179.119 136.847,181.927 133.428,182.168 133.428 C 182.921 133.428,182.989 134.780,183.065 151.435 L 183.144 168.697 183.927 169.901 C 184.357 170.563,184.931 171.107,185.202 171.109 C 185.473 171.111,186.268 171.315,186.969 171.561 C 189.144 172.325,193.834 171.325,194.543 169.945 C 194.997 169.060,195.063 128.028,194.612 127.184 C 194.281 126.567,192.873 127.017,191.569 128.157 C 190.637 128.971,187.532 128.925,186.389 128.081 C 185.942 127.750,185.452 127.479,185.301 127.479 C 184.847 127.479,183.097 125.685,182.881 125.000 C 182.771 124.649,182.441 124.233,182.148 124.076 C 181.757 123.867,181.563 123.337,181.422 122.098 C 181.141 119.607,180.799 119.515,179.024 121.453 C 177.606 123.000,174.924 126.406,173.889 127.975 C 173.628 128.370,173.264 128.787,173.079 128.901 C 172.894 129.015,172.470 129.556,172.136 130.102 C 170.922 132.092,170.013 133.339,168.942 134.488 C 168.340 135.134,167.528 136.123,167.139 136.686 C 166.369 137.800,164.948 139.669,164.017 140.793 C 162.843 142.211,161.756 143.709,161.756 143.909 C 161.756 144.114,160.612 145.655,159.415 147.062 C 159.067 147.471,158.351 148.523,157.825 149.399 C 155.915 152.578,155.807 151.897,155.807 136.624 L 155.807 123.709 155.068 122.124 C 153.013 117.714,149.425 116.212,144.822 117.835 M183.000 119.979 C 182.593 121.212,182.794 123.226,183.365 123.644 C 183.586 123.806,183.964 124.322,184.207 124.792 C 184.492 125.343,185.034 125.782,185.738 126.030 C 186.337 126.242,187.022 126.585,187.260 126.792 C 188.164 127.580,189.862 127.579,190.919 126.790 C 191.456 126.390,192.123 126.062,192.403 126.062 C 192.688 126.062,193.228 125.560,193.635 124.914 L 194.360 123.767 193.605 122.861 C 193.190 122.362,192.388 121.716,191.822 121.425 C 191.256 121.134,190.602 120.740,190.368 120.549 C 189.837 120.115,186.415 119.218,184.662 119.053 C 183.360 118.931,183.343 118.940,183.000 119.979 M216.094 137.786 C 215.052 137.972,213.968 138.332,213.686 138.587 C 213.404 138.841,212.826 139.136,212.401 139.242 C 210.482 139.721,205.969 145.049,205.242 147.695 C 205.022 148.495,204.628 149.724,204.367 150.425 C 203.071 153.901,204.093 161.137,206.483 165.413 C 207.394 167.043,211.167 170.773,212.136 171.000 C 212.550 171.098,213.336 171.448,213.881 171.779 C 215.571 172.803,223.423 172.842,225.298 171.835 C 226.047 171.434,226.791 171.105,226.952 171.105 C 227.332 171.105,229.624 169.522,230.833 168.423 C 235.713 163.989,237.588 152.533,234.412 146.559 C 234.026 145.834,233.711 145.097,233.711 144.920 C 233.711 144.403,229.224 139.711,228.533 139.507 C 228.187 139.404,227.458 139.025,226.912 138.664 C 225.133 137.487,220.074 137.076,216.094 137.786 M252.010 137.731 C 251.088 137.879,249.883 138.308,249.324 138.688 C 248.024 139.571,247.018 139.565,246.176 138.669 C 245.559 138.013,245.318 137.960,242.903 137.960 C 239.689 137.960,239.615 138.028,239.953 140.657 C 240.094 141.745,240.212 149.016,240.217 156.816 C 240.225 168.605,240.294 171.089,240.629 171.546 C 241.057 172.132,246.111 172.396,246.648 171.861 C 246.778 171.731,246.951 166.505,247.034 160.246 C 247.201 147.584,247.104 148.196,249.330 145.846 C 252.231 142.783,257.177 142.586,259.561 145.438 C 261.434 147.678,261.756 150.069,261.756 161.711 C 261.756 173.266,261.416 172.238,265.244 172.238 C 268.582 172.238,268.325 173.301,268.197 160.006 L 268.087 148.584 267.248 146.176 C 266.002 142.599,263.735 139.377,262.463 139.377 C 262.230 139.377,261.760 139.097,261.418 138.756 C 260.266 137.603,255.822 137.119,252.010 137.731 M283.557 137.779 C 282.484 137.971,281.364 138.377,280.898 138.744 C 280.456 139.092,279.925 139.377,279.718 139.377 C 279.281 139.377,275.637 142.840,275.637 143.257 C 275.637 143.411,275.387 143.765,275.081 144.041 C 274.776 144.318,274.378 145.007,274.197 145.572 C 274.017 146.138,273.625 147.005,273.327 147.500 C 271.891 149.881,271.901 160.603,273.341 163.043 C 273.628 163.529,274.022 164.412,274.218 165.005 C 274.716 166.515,278.912 170.690,280.207 170.964 C 280.732 171.075,281.608 171.439,282.153 171.773 C 283.665 172.698,293.947 172.701,295.467 171.777 C 296.013 171.445,296.919 171.092,297.482 170.992 C 299.235 170.681,300.015 169.195,299.161 167.791 C 298.891 167.347,298.513 166.509,298.321 165.928 C 298.130 165.348,297.824 164.858,297.641 164.840 C 296.843 164.762,296.109 164.976,294.772 165.679 C 292.819 166.706,285.391 166.834,284.015 165.864 C 283.573 165.552,282.997 165.170,282.735 165.014 C 280.445 163.651,278.125 158.644,279.014 156.983 C 279.339 156.376,279.384 156.374,289.943 156.374 C 300.137 156.374,300.558 156.353,300.840 155.826 C 301.297 154.972,301.182 149.626,300.678 148.300 C 300.441 147.677,300.082 146.593,299.880 145.892 C 299.678 145.191,298.996 143.844,298.365 142.898 C 297.294 141.294,296.567 140.565,294.309 138.830 C 292.630 137.539,287.632 137.051,283.557 137.779 M301.184 138.324 C 300.781 138.810,301.185 140.551,301.917 141.482 C 302.230 141.880,302.574 142.684,302.683 143.269 C 302.792 143.855,303.114 144.717,303.399 145.184 C 303.685 145.652,304.007 146.513,304.116 147.099 C 304.224 147.684,304.549 148.464,304.838 148.831 C 305.127 149.198,305.494 150.085,305.655 150.803 C 305.816 151.522,306.203 152.527,306.514 153.038 C 306.825 153.548,307.081 154.299,307.081 154.707 C 307.082 155.114,307.343 155.779,307.661 156.183 C 307.979 156.588,308.438 157.593,308.681 158.417 C 308.924 159.241,309.247 160.067,309.399 160.253 C 309.550 160.439,309.848 161.249,310.060 162.052 C 310.272 162.856,310.633 163.723,310.862 163.980 C 311.091 164.237,311.430 165.021,311.614 165.722 C 311.799 166.424,312.193 167.395,312.491 167.880 C 313.217 169.068,313.171 169.955,312.323 171.105 C 311.933 171.633,311.615 172.211,311.615 172.389 C 311.615 172.931,310.165 174.756,308.074 176.850 C 305.403 179.522,305.375 179.544,303.888 180.051 C 302.282 180.598,302.011 181.411,302.674 183.693 C 303.366 186.075,304.752 186.705,306.799 185.567 C 307.344 185.264,308.237 184.804,308.782 184.546 C 309.944 183.994,310.047 183.911,312.494 181.550 C 313.522 180.557,314.606 179.322,314.902 178.805 C 315.197 178.287,315.787 177.267,316.212 176.538 C 316.637 175.809,317.129 174.894,317.304 174.504 C 318.626 171.563,319.391 169.928,319.988 168.768 C 320.368 168.027,320.680 167.198,320.680 166.924 C 320.680 166.650,320.983 165.853,321.353 165.154 C 321.724 164.454,322.122 163.435,322.238 162.890 C 322.353 162.344,322.752 161.377,323.122 160.740 C 323.493 160.103,323.796 159.377,323.796 159.126 C 323.796 158.875,324.115 158.071,324.504 157.338 C 324.894 156.606,325.216 155.802,325.221 155.553 C 325.226 155.303,325.609 154.338,326.071 153.407 C 326.534 152.476,326.913 151.520,326.914 151.282 C 326.915 151.044,327.169 150.467,327.479 150.000 C 327.788 149.533,328.043 148.895,328.045 148.584 C 328.046 148.272,328.429 147.252,328.895 146.317 C 329.361 145.382,329.743 144.452,329.744 144.250 C 329.745 144.049,330.064 143.285,330.453 142.553 C 330.843 141.821,331.162 141.030,331.163 140.795 C 331.164 140.561,331.363 139.989,331.604 139.526 C 332.293 138.205,331.657 137.924,328.191 138.022 L 325.354 138.102 325.071 138.968 C 324.915 139.444,324.574 140.158,324.312 140.555 C 324.051 140.952,323.747 141.774,323.636 142.381 C 323.526 142.988,323.134 144.057,322.766 144.757 C 322.398 145.457,322.096 146.223,322.096 146.459 C 322.096 146.695,321.778 147.487,321.388 148.219 C 320.999 148.950,320.679 149.778,320.679 150.058 C 320.678 150.338,320.296 151.331,319.830 152.266 C 319.364 153.201,318.978 154.221,318.972 154.533 C 318.967 154.844,318.649 155.737,318.266 156.516 C 317.882 157.295,317.568 158.083,317.566 158.268 C 317.565 158.452,317.428 158.960,317.262 159.396 L 316.961 160.189 315.994 158.636 C 315.462 157.781,314.948 156.636,314.852 156.091 C 314.756 155.545,314.445 154.767,314.160 154.361 C 313.875 153.956,313.494 153.063,313.314 152.378 C 313.133 151.694,312.747 150.723,312.456 150.221 C 312.165 149.719,311.842 148.857,311.739 148.306 C 311.635 147.755,311.322 147.014,311.043 146.659 C 310.764 146.304,310.385 145.445,310.200 144.749 C 310.015 144.054,309.631 143.102,309.346 142.635 C 309.062 142.167,308.735 141.277,308.620 140.657 C 308.226 138.534,307.278 137.960,304.164 137.960 C 302.329 137.960,301.391 138.075,301.184 138.324 M222.471 143.810 C 230.643 145.793,231.869 160.528,224.273 165.474 C 222.439 166.669,217.574 166.918,216.017 165.898 C 214.863 165.141,212.748 163.152,212.748 162.824 C 212.748 162.671,212.429 162.168,212.040 161.705 C 211.650 161.242,211.330 160.586,211.328 160.247 C 211.326 159.909,211.071 158.824,210.761 157.836 C 210.452 156.848,210.198 155.617,210.198 155.099 C 210.198 154.582,210.452 153.350,210.761 152.362 C 211.071 151.375,211.329 150.312,211.336 150.000 C 211.377 148.007,215.175 144.327,217.779 143.757 C 219.998 143.271,220.261 143.274,222.471 143.810 M289.506 143.810 C 292.507 144.644,295.024 148.338,293.721 149.995 L 293.160 150.708 286.935 150.708 L 280.711 150.708 280.006 150.004 C 279.223 149.221,279.181 149.370,280.956 146.680 C 282.794 143.896,285.974 142.828,289.506 143.810 " stroke="none" fill="#e41014" fill-rule="evenodd"></path><path id="path3" d="" stroke="none" fill="#f0100c4" fill-rule="evenodd"></path><path id="path4" d="" stroke="none" fill="#f0100c4" fill-rule="evenodd"></path></g></svg>