<?xml version="1.0" encoding="UTF-8"?>
<svg version="1.1" viewBox="0 0 2048 1290" width="1280" height="1280" xmlns="http://www.w3.org/2000/svg">
<path transform="translate(0)" d="m0 0h2048v1290h-2048z" fill="#1F2A3E"/>
<path transform="translate(728,543)" d="m0 0h24l28 1 9 4 3 5 2 14 2 32 3 61 2 17 1 6h2l3-11 10-27 9-21 11-28 6-14 11-25 6-8 4-3 12-2h46l13 4 5 4 4 10 2 11 3 67 2 44 2-1 14-36 12-28 6-15 7-19 8-17 8-13 6-7 7-4h51l8 2 9 6 3 9-1 10-6 17-18 44-14 34-15 38-15 37-8 20-8 19-8 11-8 6-6 2h-62l-13-2-8-4-7-8-3-10-2-15-5-71-1-16h-2l-2 10-10 28-13 32-8 19-9 21-8 9-8 5-4 1h-63l-9-2-6-4-7-8-3-6-2-11-2-36v-42l6-32 7-39 3-18v-22l-3-12-5-12-8-10z" fill="#F1F2F2"/>
<path transform="translate(1278,543)" d="m0 0 33 1 14 4 6 7 2 5 1 12-2 8-2 9 4-2 7-7 7-8 13-12 14-8 16-6 15-3h24l17 4 14 6 14 11 8 11 7 15 2 9v25l-4 22-11 55-14 68-5 16-4 6-6 4-6 2-7 1h-50l-9-3-4-6-3-10v-14l13-73 3-19 1-10v-21l-6-11-8-7-10-3h-10l-10 3-10 6-5 5-4 6-4 13-5 22-7 41-8 42-6 21-5 10-7 6-7 2-11 1h-22l-18-1-11-3-6-7-4-10v-12l6-36 18-97 7-42 6-25 5-10 4-5 8-5 6-2z" fill="#F1F2F2"/>
<path transform="translate(669,543)" d="m0 0h16l12 5 9 7 8 8 5 10 2 8-1 18-5 27-8 40-7 33-9 49-6 21-7 14-6 7-8 5-17 5h-18l-10-4-9-7-7-7-7-10-3-8v-19l7-38 6-28 4-25-9 3-11 2h-12l-11-3-9-6-6-7-3-6-1-16 4-22 6-9 48-24 20-9 15-6 14-5z" fill="#1882DC"/>
<path transform="translate(1153,543)" d="m0 0h23l13 1 11 3 7 4 3 7v17l-8 44-15 81-12 63-4 16-5 10-4 4-5 3-16 2-34 1-13-2-7-4-5-6-3-6v-11l6-36 7-39 6-35 10-51 7-38 4-12 4-6 7-6 9-3z" fill="#F1F2F2"/>
<path transform="translate(675,546)" d="m0 0 8 1 8 3 10 6 9 9 3 6 3 17v7l-2 12-3 4-4 16-4 6-11 6-4 5-6 2-2 4-4 1-1 3-4 1-1-2-11 2-12-2h-6l-4-1-7 1-10-1-6-4h-28l-17-5h-5l-6-5v-2l-4-2-1-2v-15l4-14 9-14 4-3 7-2h4v-2l19-10 14-7 21-8 20-7z" fill="#2494EB"/>
<path transform="translate(1163,426)" d="m0 0h17l12 3 9 5 8 8 6 10 4 16v16l-4 10-7 11-9 7-8 4-7 2h-20l-12-3-9-5-10-9-5-8-2-6-1-7v-15l4-13 6-10 9-9 10-5z" fill="#1882DC"/>
<path transform="translate(1163,437)" d="m0 0h22l7 6 3 5 2 2v9l-8 5-9 5-7 3-5-1-6-10v-2l-5-2-5-3v-7l4-7z" fill="#2494EB"/>
<path transform="translate(2021)" d="m0 0h27v29l-7-6-9-11-11-11z" fill="#F1F2F2"/>
<path transform="translate(0,1264)" d="m0 0 4 2 16 16 8 7v1h-28z" fill="#F1F2F2"/>
<path transform="translate(2047,1264)" d="m0 0h1v26h-29l5-6 13-10z" fill="#F1F2F2"/>
<path transform="translate(0)" d="m0 0h27l-6 7-8 7-9 10-4 2z" fill="#F1F2F2"/>
</svg>
