<?xml version="1.0" encoding="UTF-8"?>
<svg version="1.1" viewBox="0 0 2048 1534" width="1280" height="1280" xmlns="http://www.w3.org/2000/svg">
<path transform="translate(0)" d="m0 0h2048v1534h-2048z" fill="#FDFDFD"/>
<path transform="translate(133,575)" d="m0 0h1835l9 2 14 7 10 9 7 10 6 14 1 3v17l-8 49-24 145-14 82-4 13-6 12-8 9-13 8-11 4-5 1-1828 1-20-2-14-7-10-8-7-8-7-14-2-7v-19l45-270 5-18 6-11 10-10 13-8 10-3z" fill="#0A523F"/>
<path transform="translate(752,677)" d="m0 0h52l3 2 3 19 5 48 2 27 4-3 8-16 13-25 11-20 7-14 8-14 3-3 3-1h49l2 4 4 38 4 47 1 7 5-5 8-16 9-17 8-16 13-24 9-16 3-2h54l-1 5-13 26-10 19-14 27-17 33-12 23-15 28-5 9-5 4h-57l-4-4-2-12-4-39-3-29-1-5-16 31-12 22-16 32-5 4h-59l-3-3-5-36-10-84-5-46v-4z" fill="#FDFDFD"/>
<path transform="translate(218,677)" d="m0 0h93l19 2 12 3 14 7 7 6 7 13 1 5v12l-3 12-5 9-9 8-10 5h-2l3 5 10 9 5 4 3 5 1 5v13l-4 16-6 10-8 8-14 8-15 5-14 3-9 1-113 1 1-10 17-82 12-60 5-21z" fill="#FED00E"/>
<path transform="translate(1718,677)" d="m0 0h79l20 2 15 4 14 7 10 9 6 9 3 7 2 12v16l-4 18-6 11-7 9-10 9-16 9-3 2 10 16 10 18 6 9 1 7h-58l-5-5-15-26-6-10-4-3h-8l-3 4-7 36-4 4h-50l-6-2 2-13 20-100 12-57z" fill="#FDFDFD"/>
<path transform="translate(1150,677)" d="m0 0 46 1 5 5 26 42 9 14 4 6 4 8 4 2 1-12 12-57 2-7 2-1 31-1h24l1 5-9 42-15 73-10 50-4 3-5 1h-39l-5-4-10-16-13-21-15-24-7-13-2-1-3 15-7 34-5 25-4 5h-52l-2-2 2-16 18-90 7-34 6-28z" fill="#FDFDFD"/>
<path transform="translate(1350,677)" d="m0 0h43l5 3 7 9 11 18 9 14 13 21 5 10 4 3 1-8 13-59 2-8 5-3h52l1 4-10 48-15 74-9 43-2 4-2 1h-42l-5-2-13-20-16-26-11-18-7-10-2-3-1 1-6 37-4 20-3 18-7 3h-51l-1-1v-7l8-38 20-100 6-26z" fill="#FDFDFD"/>
<path transform="translate(411,677)" d="m0 0h141l-4 17-7 25-1 2-77 1-4 1-2 6-1 11 18 1 50 1 6 1-8 30-2 10-59 1-16 2-2 5-2 10v4l73 1 15 1-2 11-7 30-2 3h-145v-7l6-24 12-61 10-49 7-29z" fill="#FED00E"/>
<path transform="translate(1551,677)" d="m0 0h139l1 1-1 9-7 27-3 6-5 1h-77l-3 18-1 3h68l6 2-2 10-6 26-2 3-72 2-4 16-1 6h86l-1 12-6 29-3 2-137 1-5-2v-7l15-75 13-64 5-22z" fill="#FDFDFD"/>
<path transform="translate(564,677)" d="m0 0h139l21 1 1 4-5 19-3 19-2 2-9 1h-41l-2 11-10 48-12 57-3 11-1 1h-58l1-10 10-48 8-40 6-28-12-1-27-1-12-1 1-11 9-32z" fill="#FED00E"/>
<path transform="translate(1064,677)" d="m0 0 56 1-1 10-16 79-14 68-2 12-4 4h-55l-2-2 1-8 8-38 16-80 9-41z" fill="#FDFDFD"/>
<path transform="translate(133,575)" d="m0 0h1835l7 2-4 1h-37l-23 1h-898l-76 1h-222l-33 1h-122l-96 1h-124l-15-1h-90l-36-1-9-1-4 1-11-1h-44l-20 4-1 2-4 3-4 4-7 11-7 9-3 11-3 17-4 20-2 25-4 19-2 14-1 12-3 13-3 14-2 23-4 17-3 16-3 21-5 18-2 21-3 12-3 8-1 12 3 17 10 15 7 7v2h2v2h2v2l5 2 13 5 3 2h-8l-14-7-10-8-7-8-7-14-2-7v-19l45-270 5-18 6-11 10-10 13-8 10-3z" fill="#064339"/>
<path transform="translate(572,671)" d="m0 0h20l22 1 37 2 18 1v1l-104 1-6 19-5 20-1 6 39 1 12 1 1 2-8 37-15 74-3 14 58-1 4-15 11-53 10-48 3-11 41-1 9-1 1-1 4-24 5-18 3 2 1 4v9l-3 10-2 3h-2l-2 11-3 6-4 3h-9l-21 2-10 2-2 6-4 9-2 18-5 20-2 19-3 7-10 30-5 13-9 4-10-2h-39l-5-2 1-10 1-25 8-39 5-26 1-9-5-10v-3h-2v-2l-16-1-12-1-2-1h-6l-4 4-8 13-1 3h-2l-2 9-4 16-3 7-2 7-3 5-1 8 4 2 5 4v3h-88l-1-5 3-14 2-2 16-2h59l1-10 7-26 1-3-5-1-50-1-18-1-1-5 2-10 2-4 4-1h77l4-16 7-26 2-3 9-1 6-3z" fill="#064339"/>
<path transform="translate(222,672)" d="m0 0h20l8 1h75l15 2 10 4 7 4 8 6 6 9 4 10 5 21-1 8-4 7-10 12v14l3 6 1 1 9-1 4-7 2-4 3-16v-10l3-11 3-8 5-21 4-12 2-8 5-4 9-3h20l9 1h23l55-1h12l13 1 2 3-139 1-4 4-9 38-22 110-4 15-1 7 145-1 2-5 7-31 3-7 1 4-2 19-3 10-4 10-5 5-6 1-30 1h-21l-24-1-15-1h-1l-4-1h-23l-4 1-10-1-7-2-5-6-6-2-10-1-14 3-12 7-14 3h-24l-17 1h-21l-19-2h-8l-3-1h-13l-2-1v2l-11 1-11-1-4-2-1-4v-13l2-15 3-13 6-29 3-18 3-6 3-17 3-16 4-14 4-20 2-9 9-6zm-4 5-3 5-5 23-21 104-8 38v5l113-1 19-3 16-5 14-7 10-9 6-9 4-12 1-6v-13l-2-7-5-6-11-9-3-3-1-3 9-3 9-7 5-6 5-12 1-6v-12l-3-9-6-10-8-6-12-6-18-4-13-1z" fill="#064339"/>
<path transform="translate(1767,722)" d="m0 0h25l8 3 5 5 3 8-1 9-5 9-6 4-6 2-12 1h-14l-6-1 1-8 6-30z" fill="#0A523F"/>
<path transform="translate(258,782)" d="m0 0 37 1 6 2 4 6-1 8-4 7-9 3h-38l-5-2 5-23z" fill="#064339"/>
<path transform="translate(1121,678)" d="m0 0 3 4 1 2v10l-8 43-15 70-3 15-7 14-3 1v-7l30-146z" fill="#064339"/>
<path transform="translate(1322,678)" d="m0 0 4 3v2l2 1-4 23-5 19-9 43-4 21-6 21-5 16-4 11h-2v-7l20-97 11-52z" fill="#064339"/>
<path transform="translate(272,718)" d="m0 0h26l7 1 3 4 1 8-2 8-4 3-3 1h-40l1-7 6-16z" fill="#064339"/>
<path transform="translate(1522,678)" d="m0 0 1 2h2l1 9-5 26-9 43-5 23-7 32-5 14-5 11h-1l1-10 19-93 10-49 2-6z" fill="#064339"/>
<path transform="translate(1043,679)" d="m0 0 1 4-3 9-8 18-9 16-10 18-8 16-14 29-8 17-8 14-5 8-11 15-3 3 2-6 14-27 10-19 28-54 16-31 10-19z" fill="#064439"/>
<path transform="translate(481,727)" d="m0 0h35l13 1v5l-4 3-2-1v2l-12 2-14 1h-20l-10-2-5-2v-5l4-1 1 2 10-4z" fill="#0B5340"/>
<path transform="translate(878,765)" d="m0 0 1 3-2 6-1 14-3 5-5 4-4 5-12 20-4 6-8 15h-2l2-6 12-24 12-22 10-20z" fill="#064339"/>
<path transform="translate(1199,680)" d="m0 0 3 1 7 11 10 15 6 12 4 5 4 7 5 5 11 2v12l-1 5-4-1-4-6-4-8-7-10-17-28-13-20z" fill="#064339"/>
<path transform="translate(1398,679)" d="m0 0 4 2 10 14 7 11 6 10 3 6v2h2l7 11 8 10 2 6v4l-4-2-5-8-6-11-14-23-13-20-7-10z" fill="#07453A"/>
<path transform="translate(932,747)" d="m0 0 4 1 3 5 6-2 4-4-1 5-8 16-4 5h-2l-2-7z" fill="#064439"/>
<path transform="translate(1868,729)" d="m0 0 2 4 1 10-2 10-5 13-9 11-2 2 1-4 6-10 4-11 3-15z" fill="#064439"/>
<path transform="translate(1959,932)" d="m0 0h2l-1 4-9 11-13 8-5 2-4-1 6-4 8-5h2l1-3h2v-2l8-7z" fill="#064439"/>
<path transform="translate(1199,680)" d="m0 0 3 1 7 11 10 15 6 12 4 5-1 4-13-21-15-24z" fill="#07453A"/>
<path transform="translate(1831,682)" d="m0 0 9 3 14 9 7 7 5 10 2 8v6l-2-4-3-9-6-11-8-8-14-8-4-2z" fill="#07463A"/>
<path transform="translate(812,713)" d="m0 0 2 2 1 12 2 5v13l-3 1-2-18z" fill="#07463A"/>
<path transform="translate(1692,678)" d="m0 0h1v9l-6 20-2 2 1-10 4-15z" fill="#07453A"/>
<path transform="translate(1190,775)" d="m0 0 3 3 7 13 3 5-1 2-6-9-3-5-6 1-1-4z" fill="#06453A"/>
<path transform="translate(1991,586)" d="m0 0 4 1 7 7 7 11 1 5-2-1-4-7-6-8-7-7z" fill="#07463A"/>
<path transform="translate(833,743)" d="m0 0 1 3-9 17-2 1v-7l3-5 5-5z" fill="#07453A"/>
<path transform="translate(1219,824)" d="m0 0 5 5 7 12 6 8-1 2-7-8-10-17z" fill="#07473B"/>
<path transform="translate(764,818)" d="m0 0 2 2 2 15v10h-1l-2-9z" fill="#07473B"/>
<path transform="translate(1864,760)" d="m0 0 1 2-3 7-7 8-2 2 1-4 6-10 2-4z" fill="#07453A"/>
<path transform="translate(1336,728)" d="m0 0h1v7l-2 9-3 4 1-13z" fill="#07463A"/>
<path transform="translate(1206,803)" d="m0 0 4 4 8 13-1 3-9-15z" fill="#07473B"/>
<path transform="translate(1424,832)" d="m0 0h2l9 14-1 2-7-9-3-5z" fill="#07473B"/>
<path transform="translate(1412,812)" d="m0 0 4 4 6 10-1 3-4-6-5-9z" fill="#07463A"/>
<path transform="translate(1187,772)" d="m0 0 4 2-3 6-3 3 1-9z" fill="#0B5340"/>
<path transform="translate(844,829)" d="m0 0h2l-3 9-3 5h-2l2-6z" fill="#07453A"/>
<path transform="translate(1221,714)" d="m0 0 3 3 5 7-1 4-7-11z" fill="#07473B"/>
<path transform="translate(36,895)" d="m0 0h1v9l-3 1v-9z" fill="#07473B"/>
</svg>
