<svg id="svg" version="1.1" xmlns="http://www.w3.org/2000/svg" xmlns:xlink="http://www.w3.org/1999/xlink" width="400" height="299.6138996138996" viewBox="0, 0, 400,299.6138996138996"><g id="svgg"><path id="path0" d="M35.919 120.094 C 35.774 120.476,35.655 121.189,35.655 121.679 C 35.655 122.170,35.403 123.071,35.095 123.682 C 34.739 124.389,34.457 125.830,34.320 127.640 C 34.183 129.459,33.907 130.866,33.555 131.536 C 33.209 132.197,32.897 133.762,32.711 135.772 C 32.518 137.860,32.239 139.231,31.902 139.745 C 31.551 140.282,31.317 141.521,31.161 143.670 C 31.000 145.899,30.776 147.051,30.391 147.638 C 30.011 148.216,29.787 149.340,29.645 151.378 C 29.503 153.419,29.279 154.541,28.898 155.122 C 28.508 155.717,28.287 156.874,28.119 159.199 C 27.950 161.540,27.725 162.709,27.313 163.395 C 26.899 164.082,26.697 165.142,26.581 167.226 C 26.469 169.226,26.241 170.464,25.835 171.271 C 25.451 172.036,25.180 173.405,25.044 175.271 C 24.895 177.325,24.670 178.378,24.231 179.090 L 23.623 180.072 24.415 180.373 C 25.585 180.818,36.042 180.767,36.494 180.315 C 36.692 180.117,36.854 179.471,36.854 178.880 C 36.854 178.288,37.118 177.287,37.440 176.654 C 37.818 175.914,38.128 174.407,38.312 172.428 C 38.488 170.528,38.782 169.068,39.081 168.612 C 39.350 168.202,39.635 166.955,39.722 165.809 C 39.997 162.182,40.175 161.216,40.657 160.734 C 40.988 160.403,41.190 159.380,41.334 157.306 C 41.523 154.585,41.895 153.408,42.567 153.408 C 43.164 153.408,44.951 156.676,45.124 158.083 C 45.223 158.890,45.571 159.930,45.897 160.394 C 46.237 160.880,46.559 161.962,46.654 162.941 C 46.760 164.035,47.030 164.877,47.409 165.295 C 47.784 165.707,48.078 166.612,48.215 167.768 C 48.358 168.980,48.608 169.722,48.960 169.979 C 49.313 170.237,49.562 170.981,49.707 172.214 C 49.841 173.349,50.141 174.300,50.487 174.682 C 50.830 175.061,51.132 176.011,51.264 177.124 C 51.444 178.656,51.633 179.088,52.450 179.834 L 53.422 180.721 57.059 180.623 L 60.696 180.524 61.809 179.411 C 62.421 178.798,62.921 178.187,62.921 178.052 C 62.921 177.744,64.682 175.025,65.427 174.183 C 65.734 173.835,66.307 173.193,66.701 172.755 C 67.094 172.316,67.416 171.774,67.416 171.550 C 67.416 171.179,68.814 169.270,69.987 168.041 C 70.248 167.767,70.687 167.146,70.961 166.661 C 71.987 164.850,72.876 163.596,73.134 163.596 C 73.280 163.596,73.597 163.124,73.838 162.547 C 74.079 161.970,74.402 161.498,74.555 161.498 C 74.708 161.498,74.996 161.107,75.194 160.629 C 75.392 160.151,75.880 159.453,76.279 159.078 C 76.678 158.704,77.004 158.234,77.004 158.035 C 77.004 157.835,77.322 157.463,77.711 157.208 C 78.100 156.953,78.497 156.354,78.592 155.877 C 78.808 154.798,80.926 153.255,81.460 153.789 C 81.954 154.284,81.872 155.865,81.310 156.668 C 80.984 157.134,80.748 158.392,80.597 160.477 C 80.438 162.677,80.213 163.833,79.830 164.417 C 79.450 164.998,79.224 166.142,79.073 168.264 C 78.917 170.441,78.682 171.611,78.230 172.454 C 77.800 173.257,77.599 174.190,77.590 175.426 C 77.583 176.417,77.456 177.835,77.308 178.577 C 76.902 180.617,77.069 180.674,83.491 180.674 L 88.966 180.674 89.422 179.137 C 89.673 178.292,90.022 177.428,90.198 177.216 C 90.373 177.004,90.632 175.401,90.771 173.652 C 90.948 171.447,91.190 170.223,91.562 169.656 C 91.935 169.087,92.162 167.927,92.312 165.832 C 92.459 163.779,92.716 162.449,93.123 161.637 C 93.529 160.828,93.777 159.548,93.902 157.618 C 94.022 155.754,94.273 154.423,94.637 153.723 C 94.977 153.068,95.272 151.622,95.405 149.963 C 95.527 148.445,95.864 146.716,96.177 146.008 C 96.505 145.264,96.814 143.611,96.934 141.963 C 97.066 140.147,97.338 138.775,97.716 138.026 C 98.101 137.260,98.376 135.841,98.537 133.779 C 98.700 131.686,98.946 130.425,99.295 129.892 C 99.644 129.360,99.894 128.083,100.063 125.968 C 100.216 124.061,100.492 122.562,100.768 122.141 C 101.018 121.760,101.267 121.008,101.322 120.469 L 101.423 119.491 95.071 119.536 L 88.720 119.581 87.862 120.390 C 87.390 120.835,86.908 121.455,86.790 121.768 C 86.437 122.706,84.713 125.243,84.429 125.243 C 84.283 125.243,83.967 125.715,83.726 126.292 C 83.485 126.869,83.171 127.341,83.029 127.341 C 82.886 127.341,82.607 127.732,82.409 128.210 C 82.211 128.688,81.723 129.386,81.324 129.760 C 80.925 130.135,80.599 130.613,80.599 130.822 C 80.599 131.031,80.349 131.378,80.043 131.593 C 79.737 131.809,79.395 132.277,79.282 132.633 C 79.081 133.270,77.782 135.099,76.836 136.079 C 76.571 136.353,76.130 136.980,75.855 137.472 C 74.911 139.164,73.700 140.824,73.410 140.824 C 73.251 140.824,73.029 141.195,72.918 141.648 C 72.708 142.502,72.051 143.492,70.637 145.081 C 70.184 145.590,69.813 146.181,69.813 146.394 C 69.813 146.608,69.577 146.959,69.288 147.174 C 69.000 147.389,68.530 148.071,68.245 148.689 C 67.959 149.307,67.613 149.813,67.476 149.813 C 67.339 149.813,67.002 150.285,66.727 150.861 C 66.452 151.438,66.092 151.910,65.926 151.910 C 65.761 151.910,65.434 152.370,65.199 152.933 C 64.756 153.993,64.595 154.208,62.657 156.330 C 60.914 158.238,60.157 157.996,59.822 155.425 C 59.719 154.640,59.377 153.628,59.061 153.178 C 58.742 152.723,58.404 151.578,58.300 150.600 C 58.192 149.585,57.878 148.541,57.556 148.133 C 57.250 147.743,56.902 146.651,56.784 145.706 C 56.666 144.762,56.329 143.683,56.035 143.309 C 55.741 142.936,55.405 141.853,55.289 140.903 C 55.172 139.953,54.827 138.768,54.522 138.270 C 54.217 137.772,53.829 136.507,53.661 135.458 C 53.492 134.410,53.130 133.306,52.856 133.003 C 52.564 132.680,52.276 131.655,52.158 130.513 C 52.032 129.292,51.756 128.350,51.416 127.974 C 51.097 127.620,50.788 126.638,50.662 125.571 C 50.538 124.513,50.228 123.522,49.913 123.174 C 49.618 122.849,49.290 121.891,49.183 121.047 L 48.989 119.512 42.586 119.456 L 36.183 119.401 35.919 120.094 M132.499 119.551 L 106.946 119.700 106.520 120.449 C 105.681 121.923,105.552 122.432,105.357 125.062 C 105.242 126.602,104.922 128.260,104.599 128.991 C 104.268 129.740,103.955 131.399,103.830 133.067 C 103.696 134.867,103.417 136.281,103.056 136.994 C 102.690 137.716,102.399 139.218,102.227 141.265 C 102.036 143.545,101.820 144.580,101.449 144.990 C 101.069 145.411,100.872 146.420,100.689 148.884 C 100.523 151.129,100.282 152.456,99.947 152.968 C 99.623 153.463,99.349 154.885,99.157 157.075 C 98.966 159.253,98.690 160.689,98.370 161.177 C 98.060 161.650,97.786 163.009,97.631 164.844 C 97.476 166.679,97.173 168.181,96.814 168.898 C 96.437 169.652,96.182 170.990,96.062 172.850 C 95.936 174.807,95.692 176.042,95.259 176.908 C 94.859 177.710,94.672 178.573,94.735 179.338 L 94.831 180.524 120.267 180.601 C 146.510 180.680,146.517 180.680,146.517 179.502 C 146.517 179.228,146.781 178.486,147.103 177.853 C 147.481 177.113,147.791 175.606,147.975 173.626 C 148.158 171.650,148.442 170.272,148.768 169.774 C 149.649 168.429,149.095 168.390,129.549 168.390 C 118.364 168.390,111.213 168.278,110.876 168.098 C 110.166 167.717,109.828 166.366,110.302 165.795 C 110.502 165.554,110.767 163.941,110.891 162.211 C 111.286 156.673,110.211 157.006,127.735 156.994 L 141.873 156.984 142.426 155.870 C 142.765 155.188,143.077 153.616,143.232 151.811 C 143.403 149.821,143.685 148.483,144.102 147.682 C 144.441 147.031,144.719 145.963,144.719 145.309 L 144.719 144.120 130.777 144.120 C 115.829 144.120,114.357 143.988,114.922 142.698 C 115.048 142.409,115.270 140.720,115.414 138.944 C 115.668 135.817,115.820 135.185,116.690 133.667 C 117.389 132.447,117.441 132.444,136.712 132.439 L 155.520 132.434 155.815 131.610 C 155.977 131.157,156.298 130.449,156.528 130.037 C 156.759 129.625,157.041 128.007,157.154 126.442 C 157.279 124.722,157.578 123.121,157.910 122.397 C 158.552 120.995,158.780 119.464,158.352 119.427 C 158.187 119.413,146.554 119.468,132.499 119.551 M163.488 120.853 C 162.879 121.893,162.686 122.723,162.530 124.973 C 162.406 126.764,162.135 128.190,161.786 128.887 C 161.447 129.562,161.123 131.210,160.941 133.174 C 160.742 135.317,160.471 136.630,160.114 137.171 C 159.738 137.741,159.525 138.873,159.386 141.035 C 159.247 143.183,159.032 144.331,158.661 144.896 C 158.304 145.441,158.056 146.679,157.891 148.737 C 157.753 150.468,157.399 152.414,157.067 153.265 C 156.748 154.085,156.393 155.947,156.278 157.403 C 156.153 158.989,155.849 160.489,155.520 161.148 C 155.178 161.832,154.899 163.264,154.781 164.939 C 154.662 166.634,154.379 168.076,154.017 168.834 C 153.657 169.586,153.367 171.050,153.244 172.734 C 153.131 174.297,152.820 175.934,152.505 176.629 C 151.711 178.382,151.494 179.723,151.920 180.237 C 152.373 180.783,194.663 180.905,195.675 180.364 C 195.994 180.193,196.255 179.782,196.255 179.450 C 196.255 179.118,196.468 178.434,196.729 177.930 C 196.989 177.426,197.338 175.646,197.503 173.975 C 197.669 172.304,198.011 170.497,198.263 169.961 C 199.138 168.099,199.617 168.152,183.291 168.309 C 165.808 168.478,167.221 168.773,167.739 165.060 C 167.933 163.678,168.090 161.935,168.090 161.187 C 168.090 160.373,168.345 159.350,168.726 158.640 C 169.188 157.776,169.421 156.622,169.581 154.396 C 169.733 152.282,169.963 151.091,170.327 150.535 C 170.690 149.981,170.935 148.720,171.116 146.469 C 171.310 144.049,171.526 142.996,171.953 142.390 C 172.394 141.762,172.561 140.878,172.673 138.573 C 172.780 136.393,172.984 135.246,173.420 134.378 C 173.825 133.573,174.084 132.268,174.215 130.373 C 174.339 128.584,174.609 127.169,174.958 126.478 C 175.307 125.787,175.584 124.334,175.721 122.472 L 175.936 119.551 170.094 119.551 L 164.252 119.551 163.488 120.853 " stroke="none" fill="#060606" fill-rule="evenodd"></path><path id="path1" d="M0.000 149.813 L 0.000 299.625 200.000 299.625 L 400.000 299.625 400.000 149.813 L 400.000 0.000 200.000 0.000 L 0.000 0.000 0.000 149.813 M49.888 119.730 C 50.053 120.240,50.344 120.847,50.534 121.078 C 50.724 121.309,51.050 122.375,51.257 123.446 C 51.464 124.517,51.880 125.870,52.181 126.453 C 52.482 127.036,52.817 128.182,52.927 129.000 C 53.036 129.818,53.370 130.948,53.668 131.511 C 53.966 132.074,54.301 133.153,54.411 133.908 C 54.521 134.663,54.850 135.757,55.143 136.339 C 55.436 136.921,55.818 138.165,55.991 139.104 C 56.165 140.042,56.506 141.117,56.751 141.491 C 56.995 141.866,57.328 143.006,57.491 144.025 C 57.655 145.044,57.998 146.198,58.254 146.590 C 58.511 146.981,58.859 148.030,59.028 148.921 C 59.197 149.812,59.591 151.085,59.904 151.750 C 60.217 152.415,60.563 153.653,60.673 154.502 C 60.907 156.313,61.812 156.207,63.038 154.226 C 64.597 151.704,65.075 151.054,65.482 150.898 C 65.722 150.806,65.918 150.542,65.918 150.313 C 65.918 150.083,66.322 149.386,66.816 148.764 C 67.311 148.142,67.715 147.454,67.715 147.235 C 67.715 147.017,67.976 146.698,68.294 146.528 C 68.613 146.357,68.968 145.914,69.084 145.543 C 69.200 145.172,69.647 144.436,70.078 143.906 C 71.631 141.997,72.210 141.173,72.210 140.868 C 72.210 140.698,72.460 140.382,72.766 140.167 C 73.072 139.951,73.414 139.484,73.527 139.127 C 73.729 138.486,74.960 136.733,76.011 135.588 C 76.310 135.263,76.724 134.656,76.932 134.240 C 77.295 133.510,78.298 132.034,79.277 130.787 C 79.721 130.221,80.649 128.808,81.375 127.592 C 81.554 127.291,81.947 126.774,82.247 126.442 C 82.796 125.836,82.942 125.617,84.045 123.751 C 84.375 123.194,84.948 122.443,85.318 122.084 C 85.689 121.724,85.993 121.274,85.993 121.084 C 85.993 120.894,86.476 120.269,87.067 119.695 L 88.141 118.652 94.996 118.652 C 101.298 118.652,101.875 118.695,102.141 119.193 C 102.514 119.889,102.046 123.740,101.447 124.898 C 101.204 125.368,100.874 127.021,100.714 128.570 C 100.554 130.119,100.217 131.993,99.964 132.734 C 99.711 133.476,99.350 135.363,99.161 136.929 C 98.972 138.494,98.618 140.247,98.374 140.824 C 98.130 141.401,97.810 143.115,97.663 144.633 C 97.516 146.151,97.181 147.904,96.918 148.528 C 96.655 149.152,96.305 150.852,96.141 152.304 C 95.977 153.757,95.581 155.764,95.262 156.763 C 94.943 157.762,94.682 159.010,94.682 159.535 C 94.682 160.981,94.109 163.776,93.621 164.711 C 93.382 165.169,93.186 166.091,93.185 166.761 C 93.183 168.315,92.673 171.189,92.125 172.734 C 91.892 173.393,91.566 175.211,91.401 176.775 C 91.153 179.120,90.953 179.826,90.255 180.819 L 89.410 182.022 82.833 182.103 C 74.884 182.201,74.361 181.843,76.063 177.464 C 76.370 176.675,76.715 174.956,76.831 173.644 C 76.946 172.332,77.287 170.512,77.589 169.599 C 77.890 168.687,78.279 166.700,78.453 165.185 C 78.627 163.670,78.968 162.046,79.210 161.576 C 79.792 160.452,80.185 156.554,79.744 156.282 C 79.554 156.164,79.338 156.401,79.225 156.849 C 79.119 157.271,78.806 157.782,78.529 157.985 C 78.253 158.187,77.762 158.773,77.440 159.288 C 75.990 161.604,75.176 162.697,74.903 162.697 C 74.740 162.697,74.607 162.880,74.607 163.105 C 74.607 163.495,73.743 164.753,72.081 166.783 C 71.657 167.300,71.311 167.865,71.311 168.039 C 71.311 168.213,71.073 168.532,70.782 168.747 C 70.491 168.962,70.084 169.476,69.877 169.888 C 69.402 170.833,68.186 172.575,67.531 173.249 C 67.256 173.532,66.881 174.019,66.699 174.330 C 65.925 175.649,64.657 177.440,64.110 177.988 C 63.786 178.312,63.521 178.770,63.521 179.006 C 63.521 179.242,63.251 179.521,62.921 179.625 C 62.592 179.730,62.322 180.003,62.322 180.233 C 62.322 182.306,54.110 183.179,51.906 181.340 C 51.094 180.662,50.871 180.197,50.589 178.587 C 50.403 177.521,50.079 176.478,49.870 176.269 C 49.521 175.920,48.839 173.397,48.839 172.456 C 48.839 172.237,48.644 171.897,48.406 171.699 C 48.168 171.501,47.817 170.575,47.627 169.640 C 47.436 168.705,47.030 167.460,46.724 166.873 C 46.418 166.286,46.077 165.207,45.967 164.476 C 45.857 163.745,45.509 162.717,45.194 162.193 C 44.879 161.669,44.540 160.557,44.441 159.722 C 44.310 158.615,44.029 157.960,43.401 157.304 C 42.308 156.160,42.248 156.172,42.245 157.528 C 42.242 159.213,41.695 162.409,41.208 163.596 C 40.971 164.172,40.636 166.033,40.463 167.731 C 40.290 169.429,39.949 171.205,39.704 171.679 C 39.459 172.152,39.111 173.864,38.931 175.483 C 38.698 177.582,38.356 178.964,37.739 180.300 L 36.873 182.172 30.309 182.172 C 24.559 182.172,23.693 182.111,23.333 181.675 C 22.770 180.995,22.865 178.126,23.500 176.629 C 23.780 175.970,24.138 174.285,24.295 172.884 C 24.453 171.483,24.837 169.528,25.149 168.539 C 25.462 167.551,25.801 165.698,25.904 164.423 C 26.007 163.147,26.305 161.529,26.566 160.827 C 26.826 160.125,27.213 158.119,27.424 156.369 C 27.636 154.618,28.010 152.798,28.255 152.324 C 28.500 151.849,28.797 150.382,28.915 149.064 C 29.032 147.745,29.385 145.893,29.697 144.948 C 30.010 144.003,30.401 141.924,30.567 140.329 C 30.732 138.734,31.072 137.018,31.323 136.516 C 31.573 136.014,31.906 134.384,32.062 132.895 C 32.218 131.406,32.618 129.415,32.952 128.472 C 33.285 127.528,33.558 126.232,33.558 125.591 C 33.558 123.907,34.023 121.710,34.727 120.069 L 35.339 118.641 42.464 118.721 L 49.588 118.801 49.888 119.730 M159.339 120.644 C 159.401 121.926,159.234 123.062,158.789 124.382 C 158.437 125.426,158.019 127.563,157.858 129.132 C 157.332 134.279,158.717 133.974,136.404 133.869 L 118.080 133.783 117.767 134.471 C 117.594 134.850,117.452 135.389,117.451 135.670 C 117.450 135.950,117.229 136.584,116.960 137.079 C 116.671 137.610,116.412 138.989,116.325 140.449 L 116.180 142.921 130.392 142.921 C 141.865 142.921,144.711 142.999,145.159 143.327 C 145.873 143.848,145.647 147.896,144.765 150.412 C 144.447 151.318,144.094 153.093,143.980 154.356 C 143.645 158.089,145.258 157.730,128.070 157.903 L 113.170 158.052 112.595 160.000 C 111.849 162.527,111.398 165.365,111.606 166.217 L 111.772 166.891 130.632 166.891 L 149.492 166.891 149.840 167.541 C 150.275 168.355,149.989 171.419,149.361 172.680 C 149.112 173.178,148.829 174.540,148.731 175.707 C 148.490 178.604,148.093 180.049,147.223 181.199 L 146.486 182.172 120.471 182.172 C 92.141 182.172,93.821 182.278,93.712 180.482 C 93.614 178.875,94.114 175.320,94.661 173.726 C 94.962 172.851,95.299 171.070,95.411 169.769 C 95.522 168.468,95.819 166.850,96.071 166.174 C 96.322 165.497,96.714 163.615,96.941 161.990 C 97.168 160.366,97.558 158.478,97.808 157.795 C 98.058 157.113,98.393 155.308,98.554 153.786 C 98.714 152.263,99.040 150.578,99.278 150.040 C 99.516 149.503,99.849 147.850,100.018 146.367 C 100.187 144.884,100.539 143.064,100.800 142.322 C 101.061 141.581,101.409 139.724,101.572 138.197 C 101.736 136.669,102.073 134.932,102.322 134.336 C 102.571 133.740,102.910 132.023,103.074 130.521 C 103.239 129.019,103.639 126.914,103.964 125.843 C 104.288 124.772,104.636 122.973,104.738 121.846 C 105.058 118.293,101.979 118.637,132.661 118.725 L 159.251 118.801 159.339 120.644 M177.228 119.250 C 177.743 119.820,177.745 119.910,177.258 121.123 C 176.977 121.824,176.618 123.610,176.460 125.094 C 176.303 126.577,175.916 128.599,175.602 129.588 C 175.287 130.577,174.943 132.367,174.837 133.566 C 174.731 134.765,174.403 136.451,174.109 137.312 C 173.814 138.172,173.478 139.943,173.362 141.246 C 173.245 142.549,172.898 144.369,172.591 145.291 C 172.284 146.212,171.893 148.216,171.723 149.743 C 171.552 151.271,171.210 152.889,170.962 153.339 C 170.713 153.789,170.370 155.546,170.199 157.244 C 170.027 158.942,169.675 160.741,169.416 161.241 C 169.128 161.798,168.925 163.043,168.892 164.447 L 168.839 166.742 178.910 166.820 C 191.534 166.919,191.242 166.970,191.534 164.631 C 191.656 163.649,191.963 162.240,192.215 161.499 C 192.467 160.759,192.815 158.875,192.990 157.313 C 193.164 155.751,193.506 153.998,193.751 153.416 C 193.996 152.835,194.327 151.219,194.486 149.825 C 194.646 148.431,195.034 146.409,195.347 145.331 C 195.660 144.253,196.006 142.439,196.115 141.299 C 196.224 140.160,196.508 138.609,196.747 137.854 C 196.985 137.098,197.375 135.155,197.612 133.535 C 197.850 131.916,198.244 130.004,198.487 129.286 C 198.731 128.568,199.011 127.061,199.110 125.938 C 199.292 123.862,200.298 120.018,200.844 119.312 C 201.458 118.519,241.235 118.958,243.418 119.782 C 244.391 120.149,245.388 120.449,245.634 120.449 C 247.300 120.449,252.867 125.757,253.352 127.809 C 253.466 128.293,253.846 129.161,254.196 129.738 C 255.128 131.275,255.120 137.616,254.183 139.625 C 253.837 140.367,253.455 141.311,253.333 141.723 C 252.973 142.943,251.674 144.902,249.363 147.713 C 246.931 150.672,246.893 150.791,247.940 152.210 C 248.352 152.768,248.689 153.477,248.689 153.785 C 248.689 154.094,248.993 155.045,249.363 155.900 C 251.179 160.084,248.714 168.982,244.607 173.074 C 244.257 173.422,243.919 173.826,243.858 173.970 C 243.726 174.277,241.563 176.162,240.726 176.700 C 240.409 176.903,239.678 177.408,239.101 177.821 C 238.524 178.234,237.581 178.781,237.004 179.036 C 236.427 179.292,235.483 179.751,234.906 180.058 C 232.928 181.109,230.074 181.273,213.806 181.273 C 200.478 181.273,197.891 181.343,196.935 181.725 C 195.958 182.116,192.816 182.166,173.637 182.100 L 151.469 182.022 151.098 181.249 C 150.653 180.321,151.068 175.844,151.749 174.212 C 151.984 173.651,152.320 171.901,152.496 170.323 C 152.672 168.746,153.026 166.958,153.284 166.350 C 153.541 165.741,153.883 163.979,154.044 162.433 C 154.205 160.888,154.539 159.068,154.786 158.388 C 155.034 157.709,155.424 155.712,155.653 153.950 C 155.883 152.189,156.263 150.368,156.498 149.905 C 156.734 149.442,157.022 147.926,157.140 146.535 C 157.258 145.144,157.599 143.323,157.898 142.490 C 158.197 141.656,158.581 139.665,158.752 138.065 C 158.922 136.465,159.271 134.712,159.527 134.170 C 159.783 133.627,160.119 131.957,160.273 130.457 C 160.427 128.957,160.758 127.240,161.009 126.641 C 161.259 126.041,161.608 124.234,161.783 122.626 C 162.239 118.450,161.820 118.652,170.024 118.652 C 176.303 118.652,176.717 118.686,177.228 119.250 M314.904 119.398 C 315.342 119.926,315.136 121.737,314.306 124.644 C 314.001 125.715,313.668 127.468,313.567 128.539 C 313.330 131.043,312.901 132.364,312.205 132.736 C 311.855 132.924,304.744 133.034,292.940 133.034 C 277.473 133.034,274.172 133.105,273.890 133.444 C 272.770 134.794,271.358 142.226,272.062 143.073 C 272.381 143.458,274.398 143.521,286.592 143.521 C 298.265 143.521,300.811 143.593,301.094 143.934 C 301.543 144.475,301.250 147.300,300.500 149.663 C 300.186 150.652,299.809 152.652,299.662 154.108 C 299.292 157.774,300.843 157.432,283.833 157.603 L 268.969 157.753 268.247 159.850 C 267.459 162.138,267.018 166.203,267.470 167.010 C 267.732 167.478,269.191 167.516,286.529 167.497 L 305.304 167.478 305.522 168.308 C 305.787 169.320,305.727 169.793,305.017 172.285 C 304.711 173.356,304.374 175.243,304.267 176.479 C 304.056 178.921,303.459 180.526,302.590 180.991 C 301.462 181.595,250.891 181.509,250.512 180.903 C 250.041 180.148,250.110 179.176,250.786 177.030 C 251.115 175.986,251.518 173.971,251.682 172.553 C 251.847 171.134,252.191 169.382,252.448 168.658 C 252.704 167.933,253.028 166.195,253.167 164.794 C 253.306 163.393,253.641 161.646,253.910 160.911 C 254.180 160.176,254.526 158.423,254.681 157.016 C 254.836 155.608,255.218 153.648,255.532 152.659 C 255.845 151.670,256.196 149.872,256.311 148.663 C 256.426 147.455,256.764 145.702,257.062 144.768 C 257.360 143.835,257.704 142.067,257.827 140.840 C 257.950 139.613,258.298 137.888,258.602 137.006 C 258.905 136.124,259.245 134.363,259.357 133.094 C 259.469 131.825,259.812 129.990,260.120 129.017 C 260.427 128.044,260.812 126.074,260.974 124.639 C 261.252 122.186,261.843 120.182,262.540 119.326 C 263.038 118.714,314.395 118.785,314.904 119.398 M376.569 119.311 C 377.106 119.847,377.004 120.940,376.176 123.532 C 375.766 124.815,375.431 126.510,375.431 127.298 C 375.431 128.982,374.671 131.763,374.007 132.509 C 373.581 132.987,372.675 133.036,363.774 133.064 C 352.173 133.099,352.590 133.029,352.257 134.993 C 352.118 135.810,351.747 137.200,351.433 138.080 C 351.118 138.961,350.781 140.646,350.685 141.826 C 350.588 143.005,350.254 144.779,349.942 145.768 C 349.631 146.757,349.248 148.716,349.091 150.123 C 348.934 151.529,348.594 153.282,348.334 154.018 C 348.075 154.754,347.783 156.367,347.684 157.603 C 347.586 158.839,347.182 160.817,346.786 161.998 C 346.365 163.256,346.063 164.870,346.058 165.893 C 346.052 166.855,345.781 168.381,345.455 169.288 C 345.128 170.195,344.727 172.150,344.563 173.633 C 344.266 176.313,342.992 180.802,342.430 181.149 C 342.269 181.249,339.315 181.352,335.866 181.377 L 329.595 181.423 329.324 180.647 C 329.130 180.090,329.209 179.431,329.604 178.309 C 329.907 177.449,330.247 175.776,330.360 174.590 C 330.473 173.405,330.818 171.625,331.127 170.637 C 331.436 169.648,331.769 167.828,331.868 166.592 C 331.967 165.356,332.371 163.293,332.765 162.007 C 333.160 160.721,333.483 159.023,333.483 158.234 C 333.483 157.444,333.757 156.002,334.092 155.028 C 334.427 154.055,334.823 152.112,334.972 150.712 C 335.121 149.311,335.502 147.356,335.820 146.367 C 336.137 145.378,336.492 143.580,336.608 142.371 C 336.725 141.162,337.081 139.358,337.399 138.362 C 338.072 136.254,338.158 133.856,337.577 133.374 C 337.306 133.149,333.905 133.016,327.015 132.963 L 316.854 132.884 316.759 131.900 C 316.707 131.359,316.930 130.145,317.254 129.203 C 317.578 128.261,317.939 126.412,318.056 125.094 C 318.282 122.554,319.142 119.600,319.772 119.200 C 320.428 118.784,376.151 118.893,376.569 119.311 M212.158 133.455 C 211.603 134.124,210.386 138.938,210.067 141.723 C 209.907 143.124,209.572 144.754,209.323 145.346 C 209.074 145.938,208.739 147.703,208.579 149.268 C 208.419 150.833,208.071 152.632,207.806 153.267 C 207.541 153.901,207.204 155.574,207.058 156.985 C 206.912 158.396,206.574 160.157,206.307 160.899 C 205.705 162.571,205.364 166.324,205.751 167.016 C 206.166 167.759,230.009 167.749,231.821 167.005 C 233.059 166.496,234.906 164.890,234.906 164.322 C 234.906 164.128,235.095 163.812,235.324 163.622 C 236.460 162.679,236.172 160.575,234.665 158.801 L 233.775 157.753 224.767 157.603 C 214.633 157.434,214.804 157.474,215.528 155.456 C 215.785 154.742,216.079 153.348,216.182 152.360 C 216.284 151.371,216.622 149.685,216.932 148.614 C 217.242 147.543,217.604 145.993,217.737 145.169 L 217.978 143.670 226.966 143.521 L 235.955 143.371 237.370 142.523 C 241.107 140.284,241.578 136.141,238.342 133.957 L 236.974 133.034 224.741 133.034 C 214.598 133.034,212.448 133.106,212.158 133.455 " stroke="none" fill="#fbfbfb" fill-rule="evenodd"></path><path id="path2" d="M200.844 119.312 C 200.298 120.018,199.292 123.862,199.110 125.938 C 199.011 127.061,198.731 128.568,198.487 129.286 C 198.244 130.004,197.850 131.916,197.612 133.535 C 197.375 135.155,196.985 137.098,196.747 137.854 C 196.508 138.609,196.224 140.160,196.115 141.299 C 196.006 142.439,195.660 144.253,195.347 145.331 C 195.034 146.409,194.646 148.431,194.486 149.825 C 194.327 151.219,193.996 152.835,193.751 153.416 C 193.506 153.998,193.163 155.762,192.987 157.337 C 192.811 158.912,192.452 160.796,192.187 161.523 C 191.923 162.251,191.686 163.790,191.659 164.944 L 191.610 167.041 195.185 167.191 L 198.760 167.341 199.001 168.240 C 199.170 168.868,199.073 169.635,198.680 170.787 C 198.370 171.693,198.021 173.446,197.903 174.682 C 197.785 175.918,197.421 177.709,197.094 178.663 C 196.130 181.476,194.867 181.273,213.388 181.273 C 230.085 181.273,232.920 181.113,234.906 180.058 C 235.483 179.751,236.427 179.292,237.004 179.036 C 237.581 178.781,238.524 178.234,239.101 177.821 C 239.678 177.408,240.409 176.903,240.726 176.700 C 241.563 176.162,243.726 174.277,243.858 173.970 C 243.919 173.826,244.257 173.422,244.607 173.074 C 248.714 168.982,251.179 160.084,249.363 155.900 C 248.993 155.045,248.689 154.094,248.689 153.785 C 248.689 153.477,248.352 152.768,247.940 152.210 C 246.893 150.791,246.931 150.672,249.363 147.713 C 251.674 144.902,252.973 142.943,253.333 141.723 C 253.455 141.311,253.837 140.367,254.183 139.625 C 255.120 137.616,255.128 131.275,254.196 129.738 C 253.846 129.161,253.466 128.293,253.352 127.809 C 252.867 125.757,247.300 120.449,245.634 120.449 C 245.388 120.449,244.391 120.149,243.418 119.782 C 241.235 118.958,201.458 118.519,200.844 119.312 M262.540 119.326 C 261.843 120.182,261.252 122.186,260.974 124.639 C 260.812 126.074,260.427 128.044,260.120 129.017 C 259.812 129.990,259.469 131.825,259.357 133.094 C 259.245 134.363,258.905 136.124,258.602 137.006 C 258.298 137.888,257.950 139.613,257.827 140.840 C 257.704 142.067,257.360 143.835,257.062 144.768 C 256.764 145.702,256.426 147.455,256.311 148.663 C 256.196 149.872,255.845 151.670,255.532 152.659 C 255.218 153.648,254.836 155.608,254.681 157.016 C 254.526 158.423,254.180 160.176,253.910 160.911 C 253.641 161.646,253.306 163.393,253.167 164.794 C 253.028 166.195,252.704 167.933,252.448 168.658 C 252.191 169.382,251.847 171.134,251.682 172.553 C 251.518 173.971,251.115 175.986,250.786 177.030 C 250.110 179.176,250.041 180.148,250.512 180.903 C 250.891 181.509,301.462 181.595,302.590 180.991 C 303.459 180.526,304.056 178.921,304.267 176.479 C 304.374 175.243,304.711 173.356,305.017 172.285 C 305.727 169.793,305.787 169.320,305.522 168.308 L 305.304 167.478 286.529 167.497 C 269.191 167.516,267.732 167.478,267.470 167.010 C 267.018 166.203,267.459 162.138,268.247 159.850 L 268.969 157.753 283.833 157.603 C 300.843 157.432,299.292 157.774,299.662 154.108 C 299.809 152.652,300.186 150.652,300.500 149.663 C 301.250 147.300,301.543 144.475,301.094 143.934 C 300.811 143.593,298.265 143.521,286.592 143.521 C 274.398 143.521,272.381 143.458,272.062 143.073 C 271.358 142.226,272.770 134.794,273.890 133.444 C 274.172 133.105,277.473 133.034,292.940 133.034 C 304.744 133.034,311.855 132.924,312.205 132.736 C 312.901 132.364,313.330 131.043,313.567 128.539 C 313.668 127.468,314.001 125.715,314.306 124.644 C 315.136 121.737,315.342 119.926,314.904 119.398 C 314.395 118.785,263.038 118.714,262.540 119.326 M319.772 119.200 C 319.142 119.600,318.282 122.554,318.056 125.094 C 317.939 126.412,317.578 128.261,317.254 129.203 C 316.930 130.145,316.707 131.359,316.759 131.900 L 316.854 132.884 327.015 132.963 C 333.905 133.016,337.306 133.149,337.577 133.374 C 338.158 133.856,338.072 136.254,337.399 138.362 C 337.081 139.358,336.725 141.162,336.608 142.371 C 336.492 143.580,336.137 145.378,335.820 146.367 C 335.502 147.356,335.121 149.311,334.972 150.712 C 334.823 152.112,334.427 154.055,334.092 155.028 C 333.757 156.002,333.483 157.444,333.483 158.234 C 333.483 159.023,333.160 160.721,332.765 162.007 C 332.371 163.293,331.967 165.356,331.868 166.592 C 331.769 167.828,331.436 169.648,331.127 170.637 C 330.818 171.625,330.473 173.405,330.360 174.590 C 330.247 175.776,329.907 177.449,329.604 178.309 C 329.209 179.431,329.130 180.090,329.324 180.647 L 329.595 181.423 335.866 181.377 C 339.315 181.352,342.269 181.249,342.430 181.149 C 342.992 180.802,344.266 176.313,344.563 173.633 C 344.727 172.150,345.128 170.195,345.455 169.288 C 345.781 168.381,346.052 166.855,346.058 165.893 C 346.063 164.870,346.365 163.256,346.786 161.998 C 347.182 160.817,347.586 158.839,347.684 157.603 C 347.783 156.367,348.075 154.754,348.334 154.018 C 348.594 153.282,348.934 151.529,349.091 150.123 C 349.248 148.716,349.631 146.757,349.942 145.768 C 350.254 144.779,350.588 143.005,350.685 141.826 C 350.781 140.646,351.118 138.961,351.433 138.080 C 351.747 137.200,352.118 135.810,352.257 134.993 C 352.590 133.029,352.173 133.099,363.774 133.064 C 372.675 133.036,373.581 132.987,374.007 132.509 C 374.671 131.763,375.431 128.982,375.431 127.298 C 375.431 126.510,375.766 124.815,376.176 123.532 C 377.004 120.940,377.106 119.847,376.569 119.311 C 376.151 118.893,320.428 118.784,319.772 119.200 M238.342 133.957 C 241.578 136.141,241.107 140.284,237.370 142.523 L 235.955 143.371 226.966 143.521 L 217.978 143.670 217.737 145.169 C 217.604 145.993,217.242 147.543,216.932 148.614 C 216.622 149.685,216.284 151.371,216.182 152.360 C 216.079 153.348,215.785 154.742,215.528 155.456 C 214.804 157.474,214.633 157.434,224.767 157.603 L 233.775 157.753 234.665 158.801 C 236.172 160.575,236.460 162.679,235.324 163.622 C 235.095 163.812,234.906 164.128,234.906 164.322 C 234.906 164.890,233.059 166.496,231.821 167.005 C 230.009 167.749,206.166 167.759,205.751 167.016 C 205.364 166.324,205.705 162.571,206.307 160.899 C 206.574 160.157,206.912 158.396,207.058 156.985 C 207.204 155.574,207.541 153.901,207.806 153.267 C 208.071 152.632,208.419 150.833,208.579 149.268 C 208.739 147.703,209.074 145.938,209.323 145.346 C 209.572 144.754,209.907 143.124,210.067 141.723 C 210.386 138.938,211.603 134.124,212.158 133.455 C 212.448 133.106,214.598 133.034,224.741 133.034 L 236.974 133.034 238.342 133.957 " stroke="none" fill="#fcbc07" fill-rule="evenodd"></path><path id="path3" d="M34.727 120.069 C 34.023 121.710,33.558 123.907,33.558 125.591 C 33.558 126.232,33.285 127.528,32.952 128.472 C 32.618 129.415,32.218 131.406,32.062 132.895 C 31.906 134.384,31.573 136.014,31.323 136.516 C 31.072 137.018,30.732 138.734,30.567 140.329 C 30.401 141.924,30.010 144.003,29.697 144.948 C 29.385 145.893,29.032 147.745,28.915 149.064 C 28.797 150.382,28.500 151.849,28.255 152.324 C 28.010 152.798,27.636 154.618,27.424 156.369 C 27.213 158.119,26.826 160.125,26.566 160.827 C 26.305 161.529,26.007 163.147,25.904 164.423 C 25.801 165.698,25.462 167.551,25.149 168.539 C 24.837 169.528,24.453 171.483,24.295 172.884 C 24.138 174.285,23.780 175.970,23.500 176.629 C 22.865 178.126,22.770 180.995,23.333 181.675 C 23.693 182.111,24.559 182.172,30.309 182.172 L 36.873 182.172 37.739 180.300 C 38.356 178.964,38.698 177.582,38.931 175.483 C 39.111 173.864,39.459 172.152,39.704 171.679 C 39.949 171.205,40.290 169.429,40.463 167.731 C 40.636 166.033,40.971 164.172,41.208 163.596 C 41.695 162.409,42.242 159.213,42.245 157.528 C 42.248 156.172,42.308 156.160,43.401 157.304 C 44.029 157.960,44.310 158.615,44.441 159.722 C 44.540 160.557,44.879 161.669,45.194 162.193 C 45.509 162.717,45.857 163.745,45.967 164.476 C 46.077 165.207,46.418 166.286,46.724 166.873 C 47.030 167.460,47.436 168.705,47.627 169.640 C 47.817 170.575,48.168 171.501,48.406 171.699 C 48.644 171.897,48.839 172.237,48.839 172.456 C 48.839 173.397,49.521 175.920,49.870 176.269 C 50.079 176.478,50.403 177.521,50.589 178.587 C 50.871 180.197,51.094 180.662,51.906 181.340 C 54.110 183.179,62.322 182.306,62.322 180.233 C 62.322 180.003,62.592 179.730,62.921 179.625 C 63.251 179.521,63.521 179.242,63.521 179.006 C 63.521 178.770,63.786 178.312,64.110 177.988 C 64.657 177.440,65.925 175.649,66.699 174.330 C 66.881 174.019,67.256 173.532,67.531 173.249 C 68.186 172.575,69.402 170.833,69.877 169.888 C 70.084 169.476,70.491 168.962,70.782 168.747 C 71.073 168.532,71.311 168.213,71.311 168.039 C 71.311 167.865,71.657 167.300,72.081 166.783 C 73.743 164.753,74.607 163.495,74.607 163.105 C 74.607 162.880,74.740 162.697,74.903 162.697 C 75.176 162.697,75.990 161.604,77.440 159.288 C 77.762 158.773,78.253 158.187,78.529 157.985 C 78.806 157.782,79.119 157.271,79.225 156.849 C 79.338 156.401,79.554 156.164,79.744 156.282 C 80.185 156.554,79.792 160.452,79.210 161.576 C 78.968 162.046,78.627 163.670,78.453 165.185 C 78.279 166.700,77.890 168.687,77.589 169.599 C 77.287 170.512,76.946 172.332,76.831 173.644 C 76.715 174.956,76.370 176.675,76.063 177.464 C 74.361 181.843,74.884 182.201,82.833 182.103 L 89.410 182.022 90.255 180.819 C 90.953 179.826,91.153 179.120,91.401 176.775 C 91.566 175.211,91.892 173.393,92.125 172.734 C 92.673 171.189,93.183 168.315,93.185 166.761 C 93.186 166.091,93.382 165.169,93.621 164.711 C 94.109 163.776,94.682 160.981,94.682 159.535 C 94.682 159.010,94.943 157.762,95.262 156.763 C 95.581 155.764,95.977 153.757,96.141 152.304 C 96.305 150.852,96.655 149.152,96.918 148.528 C 97.181 147.904,97.516 146.151,97.663 144.633 C 97.810 143.115,98.130 141.401,98.374 140.824 C 98.618 140.247,98.972 138.494,99.161 136.929 C 99.350 135.363,99.711 133.476,99.964 132.734 C 100.217 131.993,100.554 130.119,100.714 128.570 C 100.874 127.021,101.204 125.368,101.447 124.898 C 102.046 123.740,102.514 119.889,102.141 119.193 C 101.875 118.695,101.298 118.652,94.996 118.652 L 88.141 118.652 87.067 119.695 C 86.476 120.269,85.993 120.894,85.993 121.084 C 85.993 121.274,85.689 121.724,85.318 122.084 C 84.948 122.443,84.375 123.194,84.045 123.751 C 82.942 125.617,82.796 125.836,82.247 126.442 C 81.947 126.774,81.554 127.291,81.375 127.592 C 80.649 128.808,79.721 130.221,79.277 130.787 C 78.298 132.034,77.295 133.510,76.932 134.240 C 76.724 134.656,76.310 135.263,76.011 135.588 C 74.960 136.733,73.729 138.486,73.527 139.127 C 73.414 139.484,73.072 139.951,72.766 140.167 C 72.460 140.382,72.210 140.698,72.210 140.868 C 72.210 141.173,71.631 141.997,70.078 143.906 C 69.647 144.436,69.200 145.172,69.084 145.543 C 68.968 145.914,68.613 146.357,68.294 146.528 C 67.976 146.698,67.715 147.017,67.715 147.235 C 67.715 147.454,67.311 148.142,66.816 148.764 C 66.322 149.386,65.918 150.083,65.918 150.313 C 65.918 150.542,65.722 150.806,65.482 150.898 C 65.075 151.054,64.597 151.704,63.038 154.226 C 61.812 156.207,60.907 156.313,60.673 154.502 C 60.563 153.653,60.217 152.415,59.904 151.750 C 59.591 151.085,59.197 149.812,59.028 148.921 C 58.859 148.030,58.511 146.981,58.254 146.590 C 57.998 146.198,57.655 145.044,57.491 144.025 C 57.328 143.006,56.995 141.866,56.751 141.491 C 56.506 141.117,56.165 140.042,55.991 139.104 C 55.818 138.165,55.436 136.921,55.143 136.339 C 54.850 135.757,54.521 134.663,54.411 133.908 C 54.301 133.153,53.966 132.074,53.668 131.511 C 53.370 130.948,53.036 129.818,52.927 129.000 C 52.817 128.182,52.482 127.036,52.181 126.453 C 51.880 125.870,51.464 124.517,51.257 123.446 C 51.050 122.375,50.724 121.309,50.534 121.078 C 50.344 120.847,50.053 120.240,49.888 119.730 L 49.588 118.801 42.464 118.721 L 35.339 118.641 34.727 120.069 M105.496 119.223 C 105.093 119.626,104.867 120.407,104.738 121.846 C 104.636 122.973,104.288 124.772,103.964 125.843 C 103.639 126.914,103.239 129.019,103.074 130.521 C 102.910 132.023,102.571 133.740,102.322 134.336 C 102.073 134.932,101.736 136.669,101.572 138.197 C 101.409 139.724,101.061 141.581,100.800 142.322 C 100.539 143.064,100.187 144.884,100.018 146.367 C 99.849 147.850,99.516 149.503,99.278 150.040 C 99.040 150.578,98.714 152.263,98.554 153.786 C 98.393 155.308,98.058 157.113,97.808 157.795 C 97.558 158.478,97.168 160.366,96.941 161.990 C 96.714 163.615,96.322 165.497,96.071 166.174 C 95.819 166.850,95.522 168.468,95.411 169.769 C 95.299 171.070,94.962 172.851,94.661 173.726 C 94.114 175.320,93.614 178.875,93.712 180.482 C 93.821 182.278,92.141 182.172,120.471 182.172 L 146.486 182.172 147.223 181.199 C 148.093 180.049,148.490 178.604,148.731 175.707 C 148.829 174.540,149.112 173.178,149.361 172.680 C 149.989 171.419,150.275 168.355,149.840 167.541 L 149.492 166.891 130.632 166.891 L 111.772 166.891 111.606 166.217 C 111.398 165.365,111.849 162.527,112.595 160.000 L 113.170 158.052 128.070 157.903 C 145.258 157.730,143.645 158.089,143.980 154.356 C 144.094 153.093,144.447 151.318,144.765 150.412 C 145.647 147.896,145.873 143.848,145.159 143.327 C 144.711 142.999,141.865 142.921,130.392 142.921 L 116.180 142.921 116.325 140.449 C 116.412 138.989,116.671 137.610,116.960 137.079 C 117.229 136.584,117.450 135.950,117.451 135.670 C 117.452 135.389,117.594 134.850,117.767 134.471 L 118.080 133.783 136.404 133.869 C 158.717 133.974,157.332 134.279,157.858 129.132 C 158.019 127.563,158.437 125.426,158.789 124.382 C 159.234 123.062,159.401 121.926,159.339 120.644 L 159.251 118.801 132.661 118.725 C 106.803 118.651,106.055 118.664,105.496 119.223 M162.732 119.176 C 162.223 119.600,162.042 120.260,161.783 122.626 C 161.608 124.234,161.259 126.041,161.009 126.641 C 160.758 127.240,160.427 128.957,160.273 130.457 C 160.119 131.957,159.783 133.627,159.527 134.170 C 159.271 134.712,158.922 136.465,158.752 138.065 C 158.581 139.665,158.197 141.656,157.898 142.490 C 157.599 143.323,157.258 145.144,157.140 146.535 C 157.022 147.926,156.734 149.442,156.498 149.905 C 156.263 150.368,155.883 152.189,155.653 153.950 C 155.424 155.712,155.034 157.709,154.786 158.388 C 154.539 159.068,154.205 160.888,154.044 162.433 C 153.883 163.979,153.541 165.741,153.284 166.350 C 153.026 166.958,152.672 168.746,152.496 170.323 C 152.320 171.901,151.984 173.651,151.749 174.212 C 151.068 175.844,150.653 180.321,151.098 181.249 L 151.469 182.022 173.487 182.109 C 196.471 182.200,198.642 182.102,197.127 181.041 C 196.668 180.720,196.415 180.693,196.170 180.939 C 195.481 181.628,151.993 181.388,151.621 180.694 C 151.157 179.826,151.243 178.545,151.909 176.431 C 152.238 175.387,152.645 173.342,152.813 171.887 C 152.982 170.433,153.320 168.763,153.565 168.176 C 153.810 167.590,154.149 165.887,154.319 164.393 C 154.488 162.899,154.883 160.794,155.196 159.715 C 155.510 158.636,155.851 156.944,155.954 155.955 C 156.057 154.966,156.399 153.213,156.714 152.060 C 157.029 150.906,157.416 148.816,157.575 147.416 C 157.734 146.015,158.068 144.384,158.317 143.792 C 158.566 143.200,158.903 141.447,159.065 139.897 C 159.227 138.347,159.572 136.486,159.832 135.762 C 160.091 135.038,160.440 133.241,160.607 131.769 C 160.773 130.297,161.113 128.606,161.362 128.011 C 161.611 127.415,161.935 125.761,162.083 124.333 C 162.630 119.049,162.770 118.951,169.848 118.951 C 175.437 118.951,176.980 119.195,176.660 120.028 C 176.561 120.286,176.340 121.734,176.169 123.245 C 175.998 124.756,175.609 126.801,175.305 127.790 C 175.001 128.779,174.653 130.592,174.531 131.819 C 174.409 133.046,174.069 134.748,173.776 135.601 C 173.482 136.455,173.147 138.215,173.030 139.513 C 172.914 140.811,172.574 142.614,172.276 143.521 C 171.977 144.427,171.596 146.399,171.429 147.904 C 171.261 149.408,170.918 151.134,170.665 151.738 C 170.413 152.343,170.077 154.078,169.919 155.595 C 169.761 157.111,169.418 158.857,169.157 159.473 C 168.328 161.433,167.953 166.543,168.586 167.243 C 169.146 167.861,189.963 167.992,191.217 167.386 C 192.249 166.887,191.505 166.355,190.171 166.638 C 189.479 166.784,184.397 166.867,178.876 166.823 L 168.839 166.742 168.892 164.447 C 168.925 163.043,169.128 161.798,169.416 161.241 C 169.675 160.741,170.027 158.942,170.199 157.244 C 170.370 155.546,170.713 153.789,170.962 153.339 C 171.210 152.889,171.552 151.271,171.723 149.743 C 171.893 148.216,172.284 146.212,172.591 145.291 C 172.898 144.369,173.245 142.549,173.362 141.246 C 173.478 139.943,173.814 138.172,174.109 137.312 C 174.403 136.451,174.731 134.765,174.837 133.566 C 174.943 132.367,175.287 130.577,175.602 129.588 C 175.916 128.599,176.303 126.577,176.460 125.094 C 176.618 123.610,176.977 121.824,177.258 121.123 C 177.745 119.910,177.743 119.820,177.228 119.250 C 176.447 118.387,163.758 118.322,162.732 119.176 M49.055 119.326 C 49.448 119.833,50.297 122.306,50.831 124.494 C 51.071 125.483,51.513 126.764,51.811 127.341 C 52.109 127.918,52.448 129.064,52.564 129.888 C 52.680 130.712,53.015 131.858,53.309 132.434 C 53.603 133.011,53.942 134.146,54.063 134.955 C 54.185 135.765,54.537 136.900,54.846 137.478 C 55.156 138.055,55.501 139.141,55.613 139.890 C 55.726 140.640,56.134 141.932,56.520 142.761 C 56.907 143.591,57.224 144.679,57.226 145.180 C 57.227 145.681,57.506 146.625,57.846 147.277 C 58.186 147.930,58.598 149.269,58.762 150.252 C 58.926 151.235,59.202 152.211,59.376 152.420 C 59.550 152.629,59.913 153.702,60.183 154.805 C 60.453 155.907,60.814 156.854,60.986 156.910 C 61.469 157.068,63.265 155.198,64.364 153.392 C 64.910 152.494,65.818 151.154,66.381 150.412 C 66.943 149.670,67.628 148.659,67.901 148.165 C 68.175 147.670,68.716 146.861,69.103 146.367 C 70.469 144.624,70.731 144.254,71.760 142.622 C 72.331 141.715,73.082 140.637,73.429 140.225 C 73.776 139.813,74.584 138.667,75.224 137.678 C 75.864 136.689,76.791 135.341,77.284 134.682 C 77.777 134.022,78.460 133.011,78.801 132.434 C 79.143 131.858,79.827 130.846,80.321 130.187 C 81.295 128.887,82.668 126.937,83.146 126.173 C 83.311 125.910,83.805 125.265,84.243 124.740 C 84.682 124.214,85.129 123.506,85.237 123.166 C 85.345 122.825,85.543 122.547,85.677 122.547 C 85.810 122.547,86.088 122.142,86.293 121.647 C 86.498 121.151,87.126 120.342,87.688 119.849 L 88.710 118.951 94.817 118.951 C 102.705 118.951,102.614 118.898,101.277 122.770 C 100.950 123.719,100.555 125.708,100.400 127.191 C 100.245 128.674,99.913 130.372,99.662 130.964 C 99.412 131.556,99.075 133.309,98.914 134.859 C 98.753 136.410,98.408 138.181,98.148 138.796 C 97.887 139.411,97.544 141.169,97.385 142.704 C 97.226 144.238,96.881 146.094,96.618 146.829 C 96.355 147.564,96.023 149.243,95.879 150.562 C 95.736 151.880,95.358 153.768,95.040 154.757 C 94.721 155.745,94.364 157.604,94.245 158.888 C 94.126 160.171,93.783 161.924,93.481 162.783 C 93.180 163.642,92.843 165.356,92.733 166.592 C 92.623 167.828,92.286 169.583,91.984 170.493 C 91.682 171.402,91.297 173.357,91.129 174.837 C 90.403 181.239,90.358 181.273,82.656 181.273 C 75.544 181.273,75.594 181.295,76.521 178.671 C 76.764 177.981,77.051 176.430,77.158 175.225 C 77.265 174.020,77.603 172.225,77.910 171.236 C 78.217 170.247,78.604 168.269,78.771 166.840 C 78.937 165.410,79.275 163.758,79.522 163.168 C 79.768 162.578,80.122 160.715,80.308 159.028 C 80.493 157.341,80.789 155.788,80.965 155.576 C 81.402 155.049,81.200 154.930,80.192 155.124 C 79.590 155.239,79.217 155.572,78.936 156.245 C 78.716 156.771,78.342 157.363,78.104 157.560 C 77.866 157.757,77.016 158.874,76.214 160.041 C 75.412 161.208,74.453 162.586,74.081 163.104 C 73.710 163.621,73.074 164.517,72.668 165.094 C 72.263 165.670,71.526 166.682,71.031 167.341 C 70.536 168.000,69.595 169.348,68.940 170.337 C 67.620 172.329,67.308 172.755,65.796 174.613 C 65.224 175.318,64.671 176.160,64.567 176.486 C 64.464 176.812,64.270 177.079,64.136 177.079 C 64.002 177.079,63.732 177.467,63.535 177.942 C 63.338 178.418,62.864 179.079,62.481 179.412 C 62.098 179.744,61.646 180.266,61.476 180.570 C 61.097 181.249,53.879 181.586,52.742 180.978 C 51.846 180.498,50.939 178.900,50.937 177.797 C 50.937 177.286,50.599 176.234,50.187 175.459 C 49.775 174.685,49.437 173.687,49.435 173.243 C 49.434 172.798,49.112 171.746,48.720 170.904 C 48.328 170.062,47.910 168.781,47.792 168.058 C 47.674 167.334,47.336 166.337,47.041 165.843 C 46.746 165.348,46.407 164.337,46.288 163.596 C 46.168 162.854,45.833 161.775,45.543 161.199 C 45.253 160.622,44.920 159.543,44.804 158.801 C 44.687 158.057,44.118 156.727,43.534 155.831 C 42.249 153.862,42.054 154.060,41.766 157.632 C 41.655 159.017,41.319 160.780,41.020 161.551 C 40.720 162.322,40.344 164.209,40.183 165.746 C 40.022 167.282,39.674 169.145,39.409 169.885 C 39.144 170.625,38.860 172.040,38.777 173.031 C 38.623 174.885,37.708 178.581,36.978 180.300 L 36.564 181.273 30.123 181.273 L 23.682 181.273 23.492 180.515 C 23.381 180.073,23.560 178.920,23.922 177.744 C 24.263 176.636,24.625 174.854,24.727 173.783 C 24.828 172.712,25.156 171.094,25.455 170.187 C 25.754 169.281,26.094 167.477,26.212 166.180 C 26.329 164.882,26.677 163.089,26.984 162.195 C 27.292 161.302,27.633 159.532,27.742 158.263 C 27.851 156.994,28.190 155.213,28.495 154.307 C 28.800 153.401,29.179 151.513,29.338 150.112 C 29.497 148.712,29.838 146.973,30.097 146.249 C 30.355 145.525,30.699 143.758,30.861 142.322 C 31.024 140.887,31.361 139.134,31.610 138.427 C 31.860 137.720,32.200 135.938,32.367 134.466 C 32.534 132.994,32.871 131.310,33.115 130.724 C 33.360 130.138,33.690 128.497,33.849 127.076 C 34.139 124.476,35.231 120.021,35.749 119.326 C 35.957 119.047,37.651 118.951,42.397 118.951 C 47.138 118.951,48.840 119.047,49.055 119.326 M158.791 119.388 C 159.194 119.874,159.073 120.724,158.176 123.702 C 157.861 124.749,157.603 126.312,157.603 127.176 C 157.603 128.984,156.628 132.110,155.892 132.659 C 155.504 132.950,151.157 133.034,136.555 133.034 L 117.720 133.034 116.956 134.702 C 115.969 136.857,115.288 142.805,115.978 143.241 C 116.215 143.392,122.671 143.513,130.525 143.516 C 147.367 143.521,146.177 143.072,144.424 148.764 C 144.119 149.753,143.784 151.438,143.679 152.509 C 143.139 158.024,144.493 157.603,127.281 157.603 L 112.973 157.603 112.550 158.277 C 111.390 160.126,110.581 165.969,111.327 167.108 L 111.780 167.799 130.361 167.786 C 140.581 167.778,149.071 167.852,149.228 167.949 C 149.649 168.209,149.575 169.760,149.086 170.930 C 148.851 171.492,148.502 173.275,148.310 174.890 C 148.071 176.904,147.711 178.346,147.164 179.476 L 146.367 181.124 120.536 181.200 L 94.705 181.277 94.359 180.631 C 93.947 179.861,94.138 178.208,94.926 175.730 C 95.240 174.742,95.592 172.921,95.707 171.685 C 95.823 170.449,96.163 168.629,96.462 167.640 C 96.762 166.652,97.103 164.966,97.219 163.895 C 97.336 162.824,97.688 161.071,98.001 160.000 C 98.314 158.929,98.699 156.906,98.856 155.506 C 99.012 154.105,99.357 152.352,99.623 151.610 C 99.888 150.869,100.218 149.116,100.356 147.715 C 100.495 146.315,100.814 144.693,101.067 144.112 C 101.319 143.531,101.669 141.766,101.845 140.191 C 102.020 138.616,102.376 136.732,102.635 136.005 C 102.895 135.277,103.238 133.541,103.399 132.147 C 103.560 130.754,103.946 128.731,104.259 127.653 C 104.571 126.575,104.909 124.816,105.010 123.745 C 105.251 121.202,105.666 119.956,106.457 119.402 C 107.414 118.731,158.235 118.719,158.791 119.388 " stroke="none" fill="#8c8c8c" fill-rule="evenodd"></path><path id="path4" d="M35.749 119.326 C 35.231 120.021,34.139 124.476,33.849 127.076 C 33.690 128.497,33.360 130.138,33.115 130.724 C 32.871 131.310,32.534 132.994,32.367 134.466 C 32.200 135.938,31.860 137.720,31.610 138.427 C 31.361 139.134,31.024 140.887,30.861 142.322 C 30.699 143.758,30.355 145.525,30.097 146.249 C 29.838 146.973,29.497 148.712,29.338 150.112 C 29.179 151.513,28.800 153.401,28.495 154.307 C 28.190 155.213,27.851 156.994,27.742 158.263 C 27.633 159.532,27.292 161.302,26.984 162.195 C 26.677 163.089,26.329 164.882,26.212 166.180 C 26.094 167.477,25.754 169.281,25.455 170.187 C 25.156 171.094,24.828 172.712,24.727 173.783 C 24.625 174.854,24.263 176.636,23.922 177.744 C 23.560 178.920,23.381 180.073,23.492 180.515 L 23.682 181.273 30.123 181.273 L 36.564 181.273 36.978 180.300 C 37.708 178.581,38.623 174.885,38.777 173.031 C 38.860 172.040,39.144 170.625,39.409 169.885 C 39.674 169.145,40.022 167.282,40.183 165.746 C 40.344 164.209,40.720 162.322,41.020 161.551 C 41.319 160.780,41.655 159.017,41.766 157.632 C 42.054 154.060,42.249 153.862,43.534 155.831 C 44.118 156.727,44.687 158.057,44.804 158.801 C 44.920 159.543,45.253 160.622,45.543 161.199 C 45.833 161.775,46.168 162.854,46.288 163.596 C 46.407 164.337,46.746 165.348,47.041 165.843 C 47.336 166.337,47.674 167.334,47.792 168.058 C 47.910 168.781,48.328 170.062,48.720 170.904 C 49.112 171.746,49.434 172.798,49.435 173.243 C 49.437 173.687,49.775 174.685,50.187 175.459 C 50.599 176.234,50.937 177.286,50.937 177.797 C 50.939 178.900,51.846 180.498,52.742 180.978 C 53.879 181.586,61.097 181.249,61.476 180.570 C 61.646 180.266,62.098 179.744,62.481 179.412 C 62.864 179.079,63.338 178.418,63.535 177.942 C 63.732 177.467,64.002 177.079,64.136 177.079 C 64.270 177.079,64.464 176.812,64.567 176.486 C 64.671 176.160,65.224 175.318,65.796 174.613 C 67.308 172.755,67.620 172.329,68.940 170.337 C 69.595 169.348,70.536 168.000,71.031 167.341 C 71.526 166.682,72.263 165.670,72.668 165.094 C 73.074 164.517,73.710 163.621,74.081 163.104 C 74.453 162.586,75.412 161.208,76.214 160.041 C 77.016 158.874,77.866 157.757,78.104 157.560 C 78.342 157.363,78.716 156.771,78.936 156.245 C 79.217 155.572,79.590 155.239,80.192 155.124 C 81.200 154.930,81.402 155.049,80.965 155.576 C 80.789 155.788,80.493 157.341,80.308 159.028 C 80.122 160.715,79.768 162.578,79.522 163.168 C 79.275 163.758,78.937 165.410,78.771 166.840 C 78.604 168.269,78.217 170.247,77.910 171.236 C 77.603 172.225,77.265 174.020,77.158 175.225 C 77.051 176.430,76.764 177.981,76.521 178.671 C 75.594 181.295,75.544 181.273,82.656 181.273 C 90.358 181.273,90.403 181.239,91.129 174.837 C 91.297 173.357,91.682 171.402,91.984 170.493 C 92.286 169.583,92.623 167.828,92.733 166.592 C 92.843 165.356,93.180 163.642,93.481 162.783 C 93.783 161.924,94.126 160.171,94.245 158.888 C 94.364 157.604,94.721 155.745,95.040 154.757 C 95.358 153.768,95.736 151.880,95.879 150.562 C 96.023 149.243,96.355 147.564,96.618 146.829 C 96.881 146.094,97.226 144.238,97.385 142.704 C 97.544 141.169,97.887 139.411,98.148 138.796 C 98.408 138.181,98.753 136.410,98.914 134.859 C 99.075 133.309,99.412 131.556,99.662 130.964 C 99.913 130.372,100.245 128.674,100.400 127.191 C 100.555 125.708,100.950 123.719,101.277 122.770 C 102.614 118.898,102.705 118.951,94.817 118.951 L 88.710 118.951 87.688 119.849 C 87.126 120.342,86.498 121.151,86.293 121.647 C 86.088 122.142,85.810 122.547,85.677 122.547 C 85.543 122.547,85.345 122.825,85.237 123.166 C 85.129 123.506,84.682 124.214,84.243 124.740 C 83.805 125.265,83.311 125.910,83.146 126.173 C 82.668 126.937,81.295 128.887,80.321 130.187 C 79.827 130.846,79.143 131.858,78.801 132.434 C 78.460 133.011,77.777 134.022,77.284 134.682 C 76.791 135.341,75.864 136.689,75.224 137.678 C 74.584 138.667,73.776 139.813,73.429 140.225 C 73.082 140.637,72.331 141.715,71.760 142.622 C 70.731 144.254,70.469 144.624,69.103 146.367 C 68.716 146.861,68.175 147.670,67.901 148.165 C 67.628 148.659,66.943 149.670,66.381 150.412 C 65.818 151.154,64.910 152.494,64.364 153.392 C 63.265 155.198,61.469 157.068,60.986 156.910 C 60.814 156.854,60.453 155.907,60.183 154.805 C 59.913 153.702,59.550 152.629,59.376 152.420 C 59.202 152.211,58.926 151.235,58.762 150.252 C 58.598 149.269,58.186 147.930,57.846 147.277 C 57.506 146.625,57.227 145.681,57.226 145.180 C 57.224 144.679,56.907 143.591,56.520 142.761 C 56.134 141.932,55.726 140.640,55.613 139.890 C 55.501 139.141,55.156 138.055,54.846 137.478 C 54.537 136.900,54.185 135.765,54.063 134.955 C 53.942 134.146,53.603 133.011,53.309 132.434 C 53.015 131.858,52.680 130.712,52.564 129.888 C 52.448 129.064,52.109 127.918,51.811 127.341 C 51.513 126.764,51.071 125.483,50.831 124.494 C 50.297 122.306,49.448 119.833,49.055 119.326 C 48.840 119.047,47.138 118.951,42.397 118.951 C 37.651 118.951,35.957 119.047,35.749 119.326 M106.457 119.402 C 105.666 119.956,105.251 121.202,105.010 123.745 C 104.909 124.816,104.571 126.575,104.259 127.653 C 103.946 128.731,103.560 130.754,103.399 132.147 C 103.238 133.541,102.895 135.277,102.635 136.005 C 102.376 136.732,102.020 138.616,101.845 140.191 C 101.669 141.766,101.319 143.531,101.067 144.112 C 100.814 144.693,100.495 146.315,100.356 147.715 C 100.218 149.116,99.888 150.869,99.623 151.610 C 99.357 152.352,99.012 154.105,98.856 155.506 C 98.699 156.906,98.314 158.929,98.001 160.000 C 97.688 161.071,97.336 162.824,97.219 163.895 C 97.103 164.966,96.762 166.652,96.462 167.640 C 96.163 168.629,95.823 170.449,95.707 171.685 C 95.592 172.921,95.240 174.742,94.926 175.730 C 94.138 178.208,93.947 179.861,94.359 180.631 L 94.705 181.277 120.536 181.200 L 146.367 181.124 147.164 179.476 C 147.711 178.346,148.071 176.904,148.310 174.890 C 148.502 173.275,148.851 171.492,149.086 170.930 C 149.575 169.760,149.649 168.209,149.228 167.949 C 149.071 167.852,140.581 167.778,130.361 167.786 L 111.780 167.799 111.327 167.108 C 110.581 165.969,111.390 160.126,112.550 158.277 L 112.973 157.603 127.281 157.603 C 144.493 157.603,143.139 158.024,143.679 152.509 C 143.784 151.438,144.119 149.753,144.424 148.764 C 146.177 143.072,147.367 143.521,130.525 143.516 C 122.671 143.513,116.215 143.392,115.978 143.241 C 115.288 142.805,115.969 136.857,116.956 134.702 L 117.720 133.034 136.555 133.034 C 151.157 133.034,155.504 132.950,155.892 132.659 C 156.628 132.110,157.603 128.984,157.603 127.176 C 157.603 126.312,157.861 124.749,158.176 123.702 C 159.073 120.724,159.194 119.874,158.791 119.388 C 158.235 118.719,107.414 118.731,106.457 119.402 M163.792 119.291 C 162.951 119.780,162.379 121.466,162.083 124.333 C 161.935 125.761,161.611 127.415,161.362 128.011 C 161.113 128.606,160.773 130.297,160.607 131.769 C 160.440 133.241,160.091 135.038,159.832 135.762 C 159.572 136.486,159.227 138.347,159.065 139.897 C 158.903 141.447,158.566 143.200,158.317 143.792 C 158.068 144.384,157.734 146.015,157.575 147.416 C 157.416 148.816,157.029 150.906,156.714 152.060 C 156.399 153.213,156.057 154.966,155.954 155.955 C 155.851 156.944,155.510 158.636,155.196 159.715 C 154.883 160.794,154.488 162.899,154.319 164.393 C 154.149 165.887,153.810 167.590,153.565 168.176 C 153.320 168.763,152.982 170.433,152.813 171.887 C 152.645 173.342,152.238 175.387,151.909 176.431 C 151.243 178.545,151.157 179.826,151.621 180.694 C 152.012 181.424,195.603 181.625,196.178 180.899 C 196.786 180.131,197.695 176.855,197.903 174.682 C 198.021 173.446,198.370 171.693,198.680 170.787 C 199.074 169.632,199.170 168.870,199.000 168.240 L 198.757 167.341 194.735 167.412 C 164.606 167.943,167.881 168.413,168.372 163.628 C 168.543 161.960,168.897 160.090,169.157 159.473 C 169.418 158.857,169.761 157.111,169.919 155.595 C 170.077 154.078,170.413 152.343,170.665 151.738 C 170.918 151.134,171.261 149.408,171.429 147.904 C 171.596 146.399,171.977 144.427,172.276 143.521 C 172.574 142.614,172.914 140.811,173.030 139.513 C 173.147 138.215,173.482 136.455,173.776 135.601 C 174.069 134.748,174.409 133.046,174.531 131.819 C 174.653 130.592,175.001 128.779,175.305 127.790 C 175.609 126.801,175.998 124.756,176.169 123.245 C 176.340 121.734,176.561 120.286,176.660 120.028 C 177.050 119.013,165.417 118.346,163.792 119.291 M49.183 121.047 C 49.290 121.891,49.618 122.849,49.913 123.174 C 50.228 123.522,50.538 124.513,50.662 125.571 C 50.788 126.638,51.097 127.620,51.416 127.974 C 51.756 128.350,52.032 129.292,52.158 130.513 C 52.276 131.655,52.564 132.680,52.856 133.003 C 53.130 133.306,53.492 134.410,53.661 135.458 C 53.829 136.507,54.217 137.772,54.522 138.270 C 54.827 138.768,55.172 139.953,55.289 140.903 C 55.405 141.853,55.741 142.936,56.035 143.309 C 56.329 143.683,56.666 144.762,56.784 145.706 C 56.902 146.651,57.250 147.743,57.556 148.133 C 57.878 148.541,58.192 149.585,58.300 150.600 C 58.404 151.578,58.742 152.723,59.061 153.178 C 59.377 153.628,59.719 154.640,59.822 155.425 C 60.157 157.996,60.914 158.238,62.657 156.330 C 64.595 154.208,64.756 153.993,65.199 152.933 C 65.434 152.370,65.761 151.910,65.926 151.910 C 66.092 151.910,66.452 151.438,66.727 150.861 C 67.002 150.285,67.339 149.813,67.476 149.813 C 67.613 149.813,67.959 149.307,68.245 148.689 C 68.530 148.071,69.000 147.389,69.288 147.174 C 69.577 146.959,69.813 146.608,69.813 146.394 C 69.813 146.181,70.184 145.590,70.637 145.081 C 72.051 143.492,72.708 142.502,72.918 141.648 C 73.029 141.195,73.251 140.824,73.410 140.824 C 73.700 140.824,74.911 139.164,75.855 137.472 C 76.130 136.980,76.571 136.353,76.836 136.079 C 77.782 135.099,79.081 133.270,79.282 132.633 C 79.395 132.277,79.737 131.809,80.043 131.593 C 80.349 131.378,80.599 131.031,80.599 130.822 C 80.599 130.613,80.925 130.135,81.324 129.760 C 81.723 129.386,82.211 128.688,82.409 128.210 C 82.607 127.732,82.886 127.341,83.029 127.341 C 83.171 127.341,83.485 126.869,83.726 126.292 C 83.967 125.715,84.283 125.243,84.429 125.243 C 84.713 125.243,86.437 122.706,86.790 121.768 C 86.908 121.455,87.390 120.835,87.862 120.390 L 88.720 119.581 95.071 119.536 L 101.423 119.491 101.322 120.469 C 101.267 121.008,101.018 121.760,100.768 122.141 C 100.492 122.562,100.216 124.061,100.063 125.968 C 99.894 128.083,99.644 129.360,99.295 129.892 C 98.946 130.425,98.700 131.686,98.537 133.779 C 98.376 135.841,98.101 137.260,97.716 138.026 C 97.338 138.775,97.066 140.147,96.934 141.963 C 96.814 143.611,96.505 145.264,96.177 146.008 C 95.864 146.716,95.527 148.445,95.405 149.963 C 95.272 151.622,94.977 153.068,94.637 153.723 C 94.273 154.423,94.022 155.754,93.902 157.618 C 93.777 159.548,93.529 160.828,93.123 161.637 C 92.716 162.449,92.459 163.779,92.312 165.832 C 92.162 167.927,91.935 169.087,91.562 169.656 C 91.190 170.223,90.948 171.447,90.771 173.652 C 90.632 175.401,90.373 177.004,90.198 177.216 C 90.022 177.428,89.673 178.292,89.422 179.137 L 88.966 180.674 83.491 180.674 C 77.069 180.674,76.902 180.617,77.308 178.577 C 77.456 177.835,77.583 176.417,77.590 175.426 C 77.599 174.190,77.800 173.257,78.230 172.454 C 78.682 171.611,78.917 170.441,79.073 168.264 C 79.224 166.142,79.450 164.998,79.830 164.417 C 80.213 163.833,80.438 162.677,80.597 160.477 C 80.748 158.392,80.984 157.134,81.310 156.668 C 81.872 155.865,81.954 154.284,81.460 153.789 C 80.926 153.255,78.808 154.798,78.592 155.877 C 78.497 156.354,78.100 156.953,77.711 157.208 C 77.322 157.463,77.004 157.835,77.004 158.035 C 77.004 158.234,76.678 158.704,76.279 159.078 C 75.880 159.453,75.392 160.151,75.194 160.629 C 74.996 161.107,74.708 161.498,74.555 161.498 C 74.402 161.498,74.079 161.970,73.838 162.547 C 73.597 163.124,73.280 163.596,73.134 163.596 C 72.876 163.596,71.987 164.850,70.961 166.661 C 70.687 167.146,70.248 167.767,69.987 168.041 C 68.814 169.270,67.416 171.179,67.416 171.550 C 67.416 171.774,67.094 172.316,66.701 172.755 C 66.307 173.193,65.734 173.835,65.427 174.183 C 64.682 175.025,62.921 177.744,62.921 178.052 C 62.921 178.187,62.421 178.798,61.809 179.411 L 60.696 180.524 57.059 180.623 L 53.422 180.721 52.450 179.834 C 51.633 179.088,51.444 178.656,51.264 177.124 C 51.132 176.011,50.830 175.061,50.487 174.682 C 50.141 174.300,49.841 173.349,49.707 172.214 C 49.562 170.981,49.313 170.237,48.960 169.979 C 48.608 169.722,48.358 168.980,48.215 167.768 C 48.078 166.612,47.784 165.707,47.409 165.295 C 47.030 164.877,46.760 164.035,46.654 162.941 C 46.559 161.962,46.237 160.880,45.897 160.394 C 45.571 159.930,45.223 158.890,45.124 158.083 C 44.951 156.676,43.164 153.408,42.567 153.408 C 41.895 153.408,41.523 154.585,41.334 157.306 C 41.190 159.380,40.988 160.403,40.657 160.734 C 40.175 161.216,39.997 162.182,39.722 165.809 C 39.635 166.955,39.350 168.202,39.081 168.612 C 38.782 169.068,38.488 170.528,38.312 172.428 C 38.128 174.407,37.818 175.914,37.440 176.654 C 37.118 177.287,36.854 178.288,36.854 178.880 C 36.854 179.471,36.692 180.117,36.494 180.315 C 36.042 180.767,25.585 180.818,24.415 180.373 L 23.623 180.072 24.231 179.090 C 24.670 178.378,24.895 177.325,25.044 175.271 C 25.180 173.405,25.451 172.036,25.835 171.271 C 26.241 170.464,26.469 169.226,26.581 167.226 C 26.697 165.142,26.899 164.082,27.313 163.395 C 27.725 162.709,27.950 161.540,28.119 159.199 C 28.287 156.874,28.508 155.717,28.898 155.122 C 29.279 154.541,29.503 153.419,29.645 151.378 C 29.787 149.340,30.011 148.216,30.391 147.638 C 30.776 147.051,31.000 145.899,31.161 143.670 C 31.317 141.521,31.551 140.282,31.902 139.745 C 32.239 139.231,32.518 137.860,32.711 135.772 C 32.897 133.762,33.209 132.197,33.555 131.536 C 33.907 130.866,34.183 129.459,34.320 127.640 C 34.457 125.830,34.739 124.389,35.095 123.682 C 35.403 123.071,35.655 122.170,35.655 121.679 C 35.655 121.189,35.774 120.476,35.919 120.094 L 36.183 119.401 42.586 119.456 L 48.989 119.512 49.183 121.047 M158.555 120.326 C 158.502 120.806,158.212 121.738,157.910 122.397 C 157.578 123.121,157.279 124.722,157.154 126.442 C 157.041 128.007,156.759 129.625,156.528 130.037 C 156.298 130.449,155.977 131.157,155.815 131.610 L 155.520 132.434 136.712 132.439 C 117.441 132.444,117.389 132.447,116.690 133.667 C 115.820 135.185,115.668 135.817,115.414 138.944 C 115.270 140.720,115.048 142.409,114.922 142.698 C 114.357 143.988,115.829 144.120,130.777 144.120 L 144.719 144.120 144.719 145.309 C 144.719 145.963,144.441 147.031,144.102 147.682 C 143.685 148.483,143.403 149.821,143.232 151.811 C 143.077 153.616,142.765 155.188,142.426 155.870 L 141.873 156.984 127.735 156.994 C 110.211 157.006,111.286 156.673,110.891 162.211 C 110.767 163.941,110.502 165.554,110.302 165.795 C 109.828 166.366,110.166 167.717,110.876 168.098 C 111.213 168.278,118.364 168.390,129.549 168.390 C 149.095 168.390,149.649 168.429,148.768 169.774 C 148.442 170.272,148.158 171.650,147.975 173.626 C 147.791 175.606,147.481 177.113,147.103 177.853 C 146.781 178.486,146.517 179.228,146.517 179.502 C 146.517 180.680,146.510 180.680,120.267 180.601 L 94.831 180.524 94.735 179.338 C 94.672 178.573,94.859 177.710,95.259 176.908 C 95.692 176.042,95.936 174.807,96.062 172.850 C 96.182 170.990,96.437 169.652,96.814 168.898 C 97.173 168.181,97.476 166.679,97.631 164.844 C 97.786 163.009,98.060 161.650,98.370 161.177 C 98.690 160.689,98.966 159.253,99.157 157.075 C 99.349 154.885,99.623 153.463,99.947 152.968 C 100.282 152.456,100.523 151.129,100.689 148.884 C 100.872 146.420,101.069 145.411,101.449 144.990 C 101.820 144.580,102.036 143.545,102.227 141.265 C 102.399 139.218,102.690 137.716,103.056 136.994 C 103.417 136.281,103.696 134.867,103.830 133.067 C 103.955 131.399,104.268 129.740,104.599 128.991 C 104.922 128.260,105.242 126.602,105.357 125.062 C 105.552 122.432,105.681 121.923,106.520 120.449 L 106.946 119.700 132.499 119.551 C 146.554 119.468,158.187 119.413,158.352 119.427 C 158.517 119.441,158.608 119.846,158.555 120.326 M175.721 122.472 C 175.584 124.334,175.307 125.787,174.958 126.478 C 174.609 127.169,174.339 128.584,174.215 130.373 C 174.084 132.268,173.825 133.573,173.420 134.378 C 172.984 135.246,172.780 136.393,172.673 138.573 C 172.561 140.878,172.394 141.762,171.953 142.390 C 171.526 142.996,171.310 144.049,171.116 146.469 C 170.935 148.720,170.690 149.981,170.327 150.535 C 169.963 151.091,169.733 152.282,169.581 154.396 C 169.421 156.622,169.188 157.776,168.726 158.640 C 168.345 159.350,168.090 160.373,168.090 161.187 C 168.090 161.935,167.933 163.678,167.739 165.060 C 167.221 168.773,165.808 168.478,183.291 168.309 C 199.617 168.152,199.138 168.099,198.263 169.961 C 198.011 170.497,197.669 172.304,197.503 173.975 C 197.338 175.646,196.989 177.426,196.729 177.930 C 196.468 178.434,196.255 179.118,196.255 179.450 C 196.255 179.782,195.994 180.193,195.675 180.364 C 194.663 180.905,152.373 180.783,151.920 180.237 C 151.494 179.723,151.711 178.382,152.505 176.629 C 152.820 175.934,153.131 174.297,153.244 172.734 C 153.367 171.050,153.657 169.586,154.017 168.834 C 154.379 168.076,154.662 166.634,154.781 164.939 C 154.899 163.264,155.178 161.832,155.520 161.148 C 155.849 160.489,156.153 158.989,156.278 157.403 C 156.393 155.947,156.748 154.085,157.067 153.265 C 157.399 152.414,157.753 150.468,157.891 148.737 C 158.056 146.679,158.304 145.441,158.661 144.896 C 159.032 144.331,159.247 143.183,159.386 141.035 C 159.525 138.873,159.738 137.741,160.114 137.171 C 160.471 136.630,160.742 135.317,160.941 133.174 C 161.123 131.210,161.447 129.562,161.786 128.887 C 162.135 128.190,162.406 126.764,162.530 124.973 C 162.686 122.723,162.879 121.893,163.488 120.853 L 164.252 119.551 170.094 119.551 L 175.936 119.551 175.721 122.472 " stroke="none" fill="#6c6c6c" fill-rule="evenodd"></path></g></svg>